<svg width="48.001" height="72.404" viewBox="0 0 48.001 72.404" xmlns="http://www.w3.org/2000/svg"><g id="svgGroup" stroke-linecap="round" fill-rule="evenodd" font-size="9pt" stroke="#000" stroke-width="0.25mm" fill="none" style="stroke:#000;stroke-width:0.25mm;fill:none"><path d="M 0 56.101 L 8.1 52.801 Q 12.8 64.101 23.9 64.101 Q 30.5 64.101 34.7 60.901 A 10.393 10.393 0 0 0 38.746 53.83 A 15.532 15.532 0 0 0 38.9 51.601 A 14.707 14.707 0 0 0 38.358 47.505 A 11.15 11.15 0 0 0 35.2 42.351 Q 32.109 39.469 26.647 38.995 A 25.97 25.97 0 0 0 24.4 38.901 L 19.4 38.901 L 19.4 30.701 L 23.9 30.701 A 16.152 16.152 0 0 0 27.803 30.254 A 11.51 11.51 0 0 0 32.8 27.651 A 10.074 10.074 0 0 0 36.165 20.596 A 13.878 13.878 0 0 0 36.2 19.601 A 13.051 13.051 0 0 0 35.699 15.893 A 10.006 10.006 0 0 0 32.85 11.301 A 11.477 11.477 0 0 0 26.728 8.395 A 15.893 15.893 0 0 0 24.2 8.201 A 14.851 14.851 0 0 0 17.381 9.723 Q 12.93 11.983 10.3 17.601 L 2.2 14.501 Q 4.7 8.101 10.35 4.051 A 21.336 21.336 0 0 1 19.295 0.401 A 28.893 28.893 0 0 1 24.2 0.001 A 25.669 25.669 0 0 1 31.448 0.98 A 20.368 20.368 0 0 1 39.3 5.301 A 17.414 17.414 0 0 1 44.11 12.011 A 17.857 17.857 0 0 1 45.3 18.601 Q 45.3 23.401 42.95 27.501 Q 40.6 31.601 36.3 33.801 A 19.668 19.668 0 0 1 41.849 37.107 A 17.605 17.605 0 0 1 44.9 40.501 Q 48 45.001 48 51.301 A 21.161 21.161 0 0 1 46.726 58.782 A 18.688 18.688 0 0 1 41.1 66.601 A 24.508 24.508 0 0 1 28.393 72.103 A 32.875 32.875 0 0 1 23.9 72.401 A 29.304 29.304 0 0 1 14.182 70.888 Q 5.853 67.974 1.483 59.45 A 33.226 33.226 0 0 1 0 56.101 Z" vector-effect="non-scaling-stroke"/></g></svg>