<svg width="47.102" height="72.402" viewBox="0 0 47.102 72.402" xmlns="http://www.w3.org/2000/svg"><g id="svgGroup" stroke-linecap="round" fill-rule="evenodd" font-size="9pt" stroke="#000" stroke-width="0.25mm" fill="none" style="stroke:#000;stroke-width:0.25mm;fill:none"><path d="M 15.743 71.402 A 28.745 28.745 0 0 0 23.501 72.401 Q 33.901 72.401 40.501 66.351 Q 47.101 60.301 47.101 51.101 A 23.529 23.529 0 0 0 47.028 49.236 A 18.798 18.798 0 0 0 43.801 39.901 Q 40.501 35.101 35.001 32.701 A 20.434 20.434 0 0 0 36.673 31.787 Q 41.225 29.008 42.949 24.439 A 17.558 17.558 0 0 0 44.001 18.201 A 17.198 17.198 0 0 0 42.64 11.316 A 17.532 17.532 0 0 0 38.201 5.251 A 19.539 19.539 0 0 0 30.458 0.935 A 24.756 24.756 0 0 0 23.501 0.001 A 27.01 27.01 0 0 0 19.758 0.252 A 19.838 19.838 0 0 0 8.851 5.251 A 20.799 20.799 0 0 0 8.282 5.79 A 16.762 16.762 0 0 0 3.101 18.201 A 19.04 19.04 0 0 0 3.103 18.494 A 16.033 16.033 0 0 0 5.401 26.701 A 15.203 15.203 0 0 0 7.612 29.537 A 17.038 17.038 0 0 0 12.001 32.701 Q 6.601 35.001 3.301 39.851 A 18.51 18.51 0 0 0 0.988 44.565 A 21.026 21.026 0 0 0 0.001 51.101 A 25 25 0 0 0 0.018 52.027 A 19.682 19.682 0 0 0 6.601 66.351 A 22.15 22.15 0 0 0 15.743 71.402 Z M 13.051 60.451 A 13.89 13.89 0 0 0 20.539 63.981 A 19.238 19.238 0 0 0 23.501 64.201 A 17.9 17.9 0 0 0 28.321 63.582 A 13.768 13.768 0 0 0 34.001 60.451 Q 38.101 56.701 38.101 50.401 A 13.267 13.267 0 0 0 34.095 40.746 A 16.648 16.648 0 0 0 33.951 40.601 A 14.056 14.056 0 0 0 24.472 36.526 A 18.618 18.618 0 0 0 23.501 36.501 Q 17.201 36.501 13.101 40.551 A 13.306 13.306 0 0 0 9.002 50.209 A 16.288 16.288 0 0 0 9.001 50.401 A 15.834 15.834 0 0 0 9.606 54.892 A 12.103 12.103 0 0 0 13.051 60.451 Z M 15.101 26.251 A 10.912 10.912 0 0 0 20.553 28.934 A 15.545 15.545 0 0 0 23.501 29.201 A 14.951 14.951 0 0 0 27.266 28.751 A 10.947 10.947 0 0 0 31.951 26.251 A 9.477 9.477 0 0 0 35.191 19.378 A 11.603 11.603 0 0 0 35.201 18.901 A 11.948 11.948 0 0 0 34.685 15.306 A 9.5 9.5 0 0 0 31.951 11.051 A 11.155 11.155 0 0 0 26.344 8.347 A 15.708 15.708 0 0 0 23.501 8.101 A 14.407 14.407 0 0 0 19.662 8.588 A 10.934 10.934 0 0 0 15.151 11.051 A 9.758 9.758 0 0 0 11.969 17.525 A 13.593 13.593 0 0 0 11.901 18.901 A 9.898 9.898 0 0 0 12.858 23.28 A 9.93 9.93 0 0 0 15.101 26.251 Z" vector-effect="non-scaling-stroke"/></g></svg>