<svg width="49.1" height="70.001" viewBox="0 0 49.1 70.001" xmlns="http://www.w3.org/2000/svg"><g id="svgGroup" stroke-linecap="round" fill-rule="evenodd" font-size="9pt" stroke="#000" stroke-width="0.25mm" fill="none" style="stroke:#000;stroke-width:0.25mm;fill:none"><path d="M 0 70.001 L 0 0.001 L 24.8 0.001 A 39.445 39.445 0 0 1 30.766 0.42 Q 33.821 0.889 36.248 1.881 A 15.121 15.121 0 0 1 41.45 5.301 A 18.021 18.021 0 0 1 46.585 17.644 A 23.602 23.602 0 0 1 46.6 18.501 Q 46.6 23.301 43.9 27.151 Q 41.2 31.001 36.3 33.101 A 20.924 20.924 0 0 1 41.339 35.394 A 16.664 16.664 0 0 1 45.75 39.451 A 16.672 16.672 0 0 1 49.077 48.927 A 20.835 20.835 0 0 1 49.1 49.901 Q 49.1 53.701 47.9 57.101 A 20.355 20.355 0 0 1 44.95 62.553 A 23.576 23.576 0 0 1 44.2 63.501 Q 41.846 66.325 37.632 68.041 A 24.623 24.623 0 0 1 37.1 68.251 A 25.811 25.811 0 0 1 31.789 69.616 Q 29.338 69.989 26.578 70 A 42.286 42.286 0 0 1 26.4 70.001 L 0 70.001 Z M 8.7 62.001 L 27.4 62.001 Q 31.508 62.001 34.243 60.896 A 8.739 8.739 0 0 0 37.5 58.701 A 11.454 11.454 0 0 0 40.453 51.701 A 15.086 15.086 0 0 0 40.5 50.501 A 14.388 14.388 0 0 0 39.449 44.782 Q 36.786 38.589 27.376 37.737 A 35.258 35.258 0 0 0 24.2 37.601 L 8.7 37.601 L 8.7 62.001 Z M 8.7 29.701 L 23.1 29.701 A 28.964 28.964 0 0 0 27.224 29.427 Q 29.323 29.124 31.025 28.487 A 11.992 11.992 0 0 0 34.2 26.751 A 9.519 9.519 0 0 0 37.948 19.789 A 13.219 13.219 0 0 0 38 18.601 Q 38 8.649 27.014 7.953 A 27.131 27.131 0 0 0 25.3 7.901 L 8.7 7.901 L 8.7 29.701 Z" id="0" vector-effect="non-scaling-stroke"/></g></svg>