<svg width="42.3" height="71.202" viewBox="0 0 42.3 71.202" xmlns="http://www.w3.org/2000/svg"><g id="svgGroup" stroke-linecap="round" fill-rule="evenodd" font-size="9pt" stroke="#000" stroke-width="0.25mm" fill="none" style="stroke:#000;stroke-width:0.25mm;fill:none"><path d="M 0 58.6 L 7.2 54.9 A 21.29 21.29 0 0 0 8.738 57.573 Q 10.297 59.853 12.2 61.1 Q 15.1 63 20.3 63 A 15.993 15.993 0 0 0 25.962 62.079 Q 33.6 59.198 33.6 47.3 L 33.6 0 L 42.3 0 L 42.3 47 A 40.118 40.118 0 0 1 41.97 52.284 Q 41.488 55.911 40.3 58.85 A 21.511 21.511 0 0 1 38.444 62.476 Q 37.074 64.596 35.305 66.034 A 13.187 13.187 0 0 1 34.9 66.35 A 24.955 24.955 0 0 1 30.441 69.043 A 21.464 21.464 0 0 1 27.85 70.05 Q 24.2 71.2 20.2 71.2 A 26.697 26.697 0 0 1 12.241 70.09 Q 4.193 67.583 0.366 59.417 A 26.864 26.864 0 0 1 0 58.6 Z" vector-effect="non-scaling-stroke"/></g></svg>