<svg width="60.8" height="71.2" viewBox="0 0 60.8 71.2" xmlns="http://www.w3.org/2000/svg"><g id="svgGroup" stroke-linecap="round" fill-rule="evenodd" font-size="9pt" stroke="#000" stroke-width="0.25mm" fill="none" style="stroke:#000;stroke-width:0.25mm;fill:none"><path d="M 60.8 0 L 60.8 70 L 52.1 70 L 52.1 27 Q 52.1 22.9 52.3 19.3 A 91.131 91.131 0 0 1 51.731 20.844 Q 51.074 22.584 50.124 24.936 A 363.816 363.816 0 0 1 49.2 27.2 L 30 71.2 L 11.4 27 Q 9.439 22.262 8.68 20.193 A 28.648 28.648 0 0 1 8.4 19.4 A 36.173 36.173 0 0 1 8.531 20.888 Q 8.647 22.563 8.684 24.824 A 136.015 136.015 0 0 1 8.7 27 L 8.7 70 L 0 70 L 0 0 L 8.2 0 L 28.5 47.1 L 30.3 51.8 A 25.799 25.799 0 0 1 30.523 51.165 Q 30.893 50.146 31.621 48.305 A 316.573 316.573 0 0 1 32.1 47.1 L 52.5 0 L 60.8 0 Z" vector-effect="non-scaling-stroke"/></g></svg>