<svg width="49.401" height="70" viewBox="0 0 49.401 70" xmlns="http://www.w3.org/2000/svg"><g id="svgGroup" stroke-linecap="round" fill-rule="evenodd" font-size="9pt" stroke="#000" stroke-width="0.25mm" fill="none" style="stroke:#000;stroke-width:0.25mm;fill:none"><path d="M 8.7 70 L 0 70 L 0 0 L 26.8 0 Q 32.632 0 37.047 1.646 A 21.567 21.567 0 0 1 37.45 1.8 A 20.865 20.865 0 0 1 40.924 3.541 Q 43.055 4.887 44.5 6.65 Q 47 9.7 48.2 13.3 A 23.778 23.778 0 0 1 49.376 19.857 A 27.322 27.322 0 0 1 49.4 21 Q 49.4 29.3 43.75 35.6 Q 38.701 41.23 29.142 41.829 A 37.44 37.44 0 0 1 26.8 41.9 L 8.7 41.9 L 8.7 70 Z M 8.7 33.8 L 27.4 33.8 Q 32.095 33.8 35.097 31.989 A 9.593 9.593 0 0 0 37.45 30 Q 40.7 26.2 40.7 21 Q 40.7 15.9 37.6 12 Q 35.004 8.734 29.602 8.203 A 22.537 22.537 0 0 0 27.4 8.1 L 8.7 8.1 L 8.7 33.8 Z" vector-effect="non-scaling-stroke"/></g></svg>