<svg width="59.502" height="77.8" viewBox="0 0 59.502 77.8" xmlns="http://www.w3.org/2000/svg"><g id="svgGroup" stroke-linecap="round" fill-rule="evenodd" font-size="9pt" stroke="#000" stroke-width="0.25mm" fill="none" style="stroke:#000;stroke-width:0.25mm;fill:none"><path d="M 48.8 65.5 L 54.1 73.3 L 47.7 77.8 L 42.3 69.8 A 26.87 26.87 0 0 1 34.444 72.086 A 34.652 34.652 0 0 1 29.7 72.4 A 33.533 33.533 0 0 1 22.505 71.661 A 26.097 26.097 0 0 1 15.85 69.25 Q 9.9 66.1 6.55 60.75 Q 3.2 55.4 1.6 49.25 A 50.436 50.436 0 0 1 0.057 38.762 A 57.759 57.759 0 0 1 0 36.2 Q 0 29.3 1.6 23.15 Q 3.2 17 6.55 11.65 Q 9.9 6.3 15.85 3.15 A 26.819 26.819 0 0 1 24.471 0.377 A 35.073 35.073 0 0 1 29.7 0 A 33.598 33.598 0 0 1 36.326 0.628 A 27.194 27.194 0 0 1 41.25 2.1 A 26.93 26.93 0 0 1 46.214 4.727 A 21.841 21.841 0 0 1 49.75 7.7 A 29.936 29.936 0 0 1 54.429 14.175 A 34.957 34.957 0 0 1 55.35 16 Q 57.6 20.8 58.55 25.8 Q 59.5 30.8 59.5 36.2 A 56.195 56.195 0 0 1 58.455 47.398 Q 56.157 58.694 48.8 65.5 Z M 37.4 62.6 L 32.4 55.1 L 39 50.6 L 43.8 57.8 A 26.717 26.717 0 0 0 48.95 47.77 Q 50.038 43.909 50.31 39.332 A 52.817 52.817 0 0 0 50.4 36.2 A 51.214 51.214 0 0 0 49.847 28.51 A 40.441 40.441 0 0 0 48.55 22.75 Q 46.7 16.7 41.85 12.4 A 16.937 16.937 0 0 0 32.352 8.252 A 22.644 22.644 0 0 0 29.7 8.1 A 20.061 20.061 0 0 0 24.397 8.776 A 16.619 16.619 0 0 0 20.05 10.65 Q 15.9 13.2 13.6 17.45 Q 11.3 21.7 10.15 26.4 Q 9 31.1 9 36.2 A 47.386 47.386 0 0 0 9.569 43.653 A 41.47 41.47 0 0 0 10.1 46.4 Q 11.2 51.2 13.55 55.3 Q 15.9 59.4 20.05 61.8 Q 24.2 64.2 29.7 64.2 Q 33.936 64.2 37.02 62.783 A 12.867 12.867 0 0 0 37.4 62.6 Z" vector-effect="non-scaling-stroke"/></g></svg>