<svg width="50.303" height="71.205" viewBox="0 0 50.303 71.205" xmlns="http://www.w3.org/2000/svg"><g id="svgGroup" stroke-linecap="round" fill-rule="evenodd" font-size="9pt" stroke="#000" stroke-width="0.25mm" fill="none" style="stroke:#000;stroke-width:0.25mm;fill:none"><path d="M 0 43.7 L 0 0 L 8.7 0 L 8.7 43.7 Q 8.7 53.184 12.157 57.64 A 10.347 10.347 0 0 0 13.1 58.7 A 14.639 14.639 0 0 0 20.24 62.489 A 21.831 21.831 0 0 0 25.1 63 A 21.735 21.735 0 0 0 30.156 62.445 A 14.796 14.796 0 0 0 37.15 58.7 A 12.084 12.084 0 0 0 39.862 54.575 Q 41.42 50.822 41.581 45.061 A 48.532 48.532 0 0 0 41.6 43.7 L 41.6 0 L 50.3 0 L 50.3 43.7 A 43.501 43.501 0 0 1 49.137 54.247 Q 44.886 71.2 25.1 71.2 Q 0.174 71.2 0.001 44.08 A 59.639 59.639 0 0 1 0 43.7 Z" vector-effect="non-scaling-stroke"/></g></svg>