<svg width="49" height="72.401" viewBox="0 0 49 72.401" xmlns="http://www.w3.org/2000/svg"><g id="svgGroup" stroke-linecap="round" fill-rule="evenodd" font-size="9pt" stroke="#000" stroke-width="0.25mm" fill="none" style="stroke:#000;stroke-width:0.25mm;fill:none"><path d="M 24.5 72.401 Q 17.8 72.401 12.8 69.251 Q 7.8 66.101 5.15 60.751 Q 2.5 55.401 1.25 49.301 A 61.724 61.724 0 0 1 0.122 40.488 A 73.867 73.867 0 0 1 0 36.201 A 67.546 67.546 0 0 1 0.726 26.164 A 60.914 60.914 0 0 1 1.1 23.951 Q 2.2 18.101 4.8 12.451 Q 7.4 6.801 12.45 3.401 A 19.828 19.828 0 0 1 20.868 0.248 A 25.901 25.901 0 0 1 24.5 0.001 Q 31.2 0.001 36.2 3.151 Q 41.2 6.301 43.85 11.701 Q 46.5 17.101 47.75 23.201 Q 49 29.301 49 36.201 A 64.447 64.447 0 0 1 48.181 46.609 A 58.335 58.335 0 0 1 47.85 48.451 Q 46.7 54.301 44.1 59.951 Q 41.5 65.601 36.45 69.001 Q 31.4 72.401 24.5 72.401 Z M 24.5 64.201 A 13.512 13.512 0 0 0 28.555 63.614 A 11.408 11.408 0 0 0 32.2 61.701 A 13.804 13.804 0 0 0 35.948 57.125 A 17.884 17.884 0 0 0 36.95 54.801 Q 38.5 50.401 39.15 45.951 A 60.744 60.744 0 0 0 39.676 40.675 A 77.731 77.731 0 0 0 39.8 36.201 Q 39.8 30.601 39.1 25.901 Q 38.4 21.201 36.75 17.051 Q 35.1 12.901 32 10.501 A 11.422 11.422 0 0 0 26.169 8.192 A 14.853 14.853 0 0 0 24.5 8.101 A 13.784 13.784 0 0 0 20.557 8.642 A 11.292 11.292 0 0 0 16.7 10.651 Q 13.5 13.201 11.9 17.551 Q 10.3 21.901 9.65 26.451 A 64.396 64.396 0 0 0 9.092 32.392 A 77.554 77.554 0 0 0 9 36.201 Q 9 41.801 9.7 46.451 Q 10.4 51.101 12.1 55.301 A 16.984 16.984 0 0 0 14.087 58.935 A 13.547 13.547 0 0 0 16.95 61.851 A 11.813 11.813 0 0 0 22.862 64.114 A 15.24 15.24 0 0 0 24.5 64.201 Z" vector-effect="non-scaling-stroke"/></g></svg>