<svg width="48.502" height="71.2" viewBox="0 0 48.502 71.2" xmlns="http://www.w3.org/2000/svg"><g id="svgGroup" stroke-linecap="round" fill-rule="evenodd" font-size="9pt" stroke="#000" stroke-width="0.25mm" fill="none" style="stroke:#000;stroke-width:0.25mm;fill:none"><path d="M 0 63.5 L 5.2 56.8 Q 12.5 63.2 22.3 63.2 A 19.967 19.967 0 0 0 28.238 62.354 A 16.237 16.237 0 0 0 34.55 58.7 A 14.586 14.586 0 0 0 39.389 48.123 A 18.096 18.096 0 0 0 39.4 47.5 A 17.997 17.997 0 0 0 38.797 42.725 A 13.573 13.573 0 0 0 35.45 36.8 A 13.21 13.21 0 0 0 27.134 32.81 A 18.247 18.247 0 0 0 25.1 32.7 A 22.869 22.869 0 0 0 19.135 33.436 A 16.395 16.395 0 0 0 11 38.4 L 2.4 35.4 L 6.5 0 L 43.9 0 L 43.9 8.1 L 14.1 8.1 L 11.4 29.2 Q 17.4 24.4 26.1 24.4 A 25.047 25.047 0 0 1 33.598 25.473 A 20.153 20.153 0 0 1 42.3 30.9 A 22.187 22.187 0 0 1 48.494 46.309 A 28.689 28.689 0 0 1 48.5 46.9 A 23.543 23.543 0 0 1 45.808 58.162 A 24.312 24.312 0 0 1 41.25 64.15 A 24.546 24.546 0 0 1 27.267 70.863 A 33.941 33.941 0 0 1 22.4 71.2 Q 14.6 71.2 8.8 68.9 Q 4.665 67.26 1.953 65.214 A 16.75 16.75 0 0 1 0 63.5 Z" vector-effect="non-scaling-stroke"/></g></svg>