<svg width="47.011" height="72.401" viewBox="0 0 47.011 72.401" xmlns="http://www.w3.org/2000/svg"><g id="svgGroup" stroke-linecap="round" fill-rule="evenodd" font-size="9pt" stroke="#000" stroke-width="0.25mm" fill="none" style="stroke:#000;stroke-width:0.25mm;fill:none"><path d="M 37.005 0 L 37.005 7.7 Q 27.505 9.9 20.055 16.85 A 32.425 32.425 0 0 0 12.589 27.01 A 30.753 30.753 0 0 0 10.505 33.2 A 15.676 15.676 0 0 1 17.745 28.611 Q 21.259 27.5 25.805 27.5 A 20.762 20.762 0 0 1 34.782 29.414 A 20.574 20.574 0 0 1 40.905 33.9 Q 47.005 40.3 47.005 49.5 A 24.139 24.139 0 0 1 45.568 57.969 A 21.443 21.443 0 0 1 40.355 65.9 A 22.592 22.592 0 0 1 25.019 72.371 A 29.778 29.778 0 0 1 23.705 72.4 A 27.462 27.462 0 0 1 16.339 71.467 A 19.563 19.563 0 0 1 6.155 64.85 A 26.568 26.568 0 0 1 0.87 53.674 A 38.407 38.407 0 0 1 0.005 45.3 Q 0.005 28.7 9.955 16.1 Q 19.905 3.5 37.005 0 Z M 23.605 64.2 A 17.666 17.666 0 0 0 28.491 63.556 A 13.608 13.608 0 0 0 34.205 60.3 A 13 13 0 0 0 38.179 52.173 A 18.096 18.096 0 0 0 38.305 50 A 16.922 16.922 0 0 0 37.687 45.311 A 12.877 12.877 0 0 0 34.255 39.55 Q 30.205 35.6 23.605 35.6 A 17.486 17.486 0 0 0 18.625 36.277 A 13.779 13.779 0 0 0 12.955 39.55 A 13.152 13.152 0 0 0 8.951 47.652 A 18.316 18.316 0 0 0 8.805 50 A 15.386 15.386 0 0 0 9.553 54.897 A 12.836 12.836 0 0 0 13.005 60.25 A 14.412 14.412 0 0 0 21.754 64.113 A 19.264 19.264 0 0 0 23.605 64.2 Z" vector-effect="non-scaling-stroke"/></g></svg>