<svg width="44.5" height="70" viewBox="0 0 44.5 70" xmlns="http://www.w3.org/2000/svg"><g id="svgGroup" stroke-linecap="round" fill-rule="evenodd" font-size="9pt" stroke="#000" stroke-width="0.25mm" fill="none" style="stroke:#000;stroke-width:0.25mm;fill:none"><path d="M 22.9 70 L 14 70 A 117.905 117.905 0 0 1 15.836 50.146 A 96.871 96.871 0 0 1 19 37.55 A 92.294 92.294 0 0 1 26.886 20.052 A 119.849 119.849 0 0 1 34.8 8.1 L 0 8.1 L 0 0 L 44.5 0 L 44.5 7.9 Q 38.2 15.1 33.75 23.65 A 85.607 85.607 0 0 0 28.7 35.319 A 73.462 73.462 0 0 0 27.1 40.6 Q 24.9 49 23.9 56.05 Q 22.9 63.1 22.9 70 Z" vector-effect="non-scaling-stroke"/></g></svg>