<svg width="47.103" height="72.401" viewBox="0 0 47.103 72.401" xmlns="http://www.w3.org/2000/svg"><g id="svgGroup" stroke-linecap="round" fill-rule="evenodd" font-size="9pt" stroke="#000" stroke-width="0.25mm" fill="none" style="stroke:#000;stroke-width:0.25mm;fill:none"><path d="M 11.701 72.401 L 11.701 64.301 Q 21.201 62.601 28.151 55.901 A 29.049 29.049 0 0 0 36.294 41.343 A 36.628 36.628 0 0 0 36.801 38.801 A 15.34 15.34 0 0 1 29.298 43.733 Q 26.741 44.534 23.634 44.734 A 33.171 33.171 0 0 1 21.501 44.801 A 22.064 22.064 0 0 1 13.184 43.275 A 20.446 20.446 0 0 1 6.151 38.501 A 21.401 21.401 0 0 1 0.016 23.712 A 28.059 28.059 0 0 1 0.001 22.801 Q 0.001 12.901 6.751 6.451 A 23.062 23.062 0 0 1 21.128 0.115 A 30.783 30.783 0 0 1 23.801 0.001 A 28.103 28.103 0 0 1 30.745 0.809 A 18.809 18.809 0 0 1 41.201 7.501 A 26.46 26.46 0 0 1 46.051 17.71 Q 47.101 21.996 47.101 27.101 Q 47.101 44.801 37.651 57.451 A 37.322 37.322 0 0 1 12.471 72.288 A 48.88 48.88 0 0 1 11.701 72.401 Z M 23.501 36.701 A 17.43 17.43 0 0 0 28.292 36.074 A 13.359 13.359 0 0 0 34.051 32.751 A 13.235 13.235 0 0 0 37.971 24.622 A 18.318 18.318 0 0 0 38.101 22.401 A 14.665 14.665 0 0 0 37.249 17.314 A 12.949 12.949 0 0 0 33.951 12.351 A 14.198 14.198 0 0 0 25.043 8.463 A 18.889 18.889 0 0 0 23.501 8.401 A 17.43 17.43 0 0 0 18.711 9.028 A 13.359 13.359 0 0 0 12.951 12.351 A 13.244 13.244 0 0 0 8.926 21.461 A 17.647 17.647 0 0 0 8.901 22.401 A 17.374 17.374 0 0 0 9.457 26.91 A 12.763 12.763 0 0 0 12.851 32.801 A 13.177 13.177 0 0 0 19.582 36.32 A 19.172 19.172 0 0 0 23.501 36.701 Z" vector-effect="non-scaling-stroke"/></g></svg>