<svg width="52.2" height="72.402" viewBox="0 0 52.2 72.402" xmlns="http://www.w3.org/2000/svg"><g id="svgGroup" stroke-linecap="round" fill-rule="evenodd" font-size="9pt" stroke="#000" stroke-width="0.25mm" fill="none" style="stroke:#000;stroke-width:0.25mm;fill:none"><path d="M 51.6 12.602 L 43.8 16.602 A 26.798 26.798 0 0 0 41.293 13.371 Q 39.777 11.715 38.125 10.569 A 15.952 15.952 0 0 0 37.65 10.252 A 12.732 12.732 0 0 0 33.815 8.64 Q 31.652 8.102 29 8.102 A 18.394 18.394 0 0 0 23.059 9.026 A 15.659 15.659 0 0 0 17.2 12.602 Q 12.5 17.102 10.75 23.152 A 44.824 44.824 0 0 0 9.124 32.55 A 53.129 53.129 0 0 0 9 36.202 A 43.612 43.612 0 0 0 9.977 45.642 A 33.015 33.015 0 0 0 14.1 55.952 A 17.829 17.829 0 0 0 19.02 61.293 Q 22.596 63.793 27.397 64.144 A 21.959 21.959 0 0 0 29 64.202 A 17.014 17.014 0 0 0 37.312 62.197 Q 40.604 60.394 43.094 56.969 A 24.028 24.028 0 0 0 44.2 55.302 L 52.2 58.302 Q 49.3 64.702 43.5 68.552 A 22.287 22.287 0 0 1 35.825 71.717 Q 32.671 72.402 29 72.402 Q 21.4 72.402 15.6 69.302 Q 9.8 66.202 6.5 60.902 Q 3.2 55.602 1.6 49.402 A 51.213 51.213 0 0 1 0.066 39.013 A 59.197 59.197 0 0 1 0 36.202 Q 0 29.302 1.65 23.052 Q 3.3 16.802 6.65 11.552 A 24.565 24.565 0 0 1 15.705 3.177 A 28.43 28.43 0 0 1 15.75 3.152 Q 21.5 0.002 29 0.002 A 32.992 32.992 0 0 1 37.629 1.055 A 21.073 21.073 0 0 1 51.6 12.602 Z" id="0" vector-effect="non-scaling-stroke"/></g></svg>