<svg width="51.6" height="70.001" viewBox="0 0 51.6 70.001" xmlns="http://www.w3.org/2000/svg"><g id="svgGroup" stroke-linecap="round" fill-rule="evenodd" font-size="9pt" stroke="#000" stroke-width="0.25mm" fill="none" style="stroke:#000;stroke-width:0.25mm;fill:none"><path d="M 0 70 L 0 0 L 19.1 0 A 41.841 41.841 0 0 1 26.701 0.66 A 31.443 31.443 0 0 1 34.2 3 A 28.323 28.323 0 0 1 40.159 6.653 A 23.261 23.261 0 0 1 44.4 11.1 Q 48.1 16.2 49.85 22.2 Q 51.6 28.2 51.6 35 A 45.988 45.988 0 0 1 50.425 45.506 A 42.201 42.201 0 0 1 49.95 47.35 Q 48.3 53.2 44.75 58.45 Q 41.2 63.7 34.5 66.85 A 32.161 32.161 0 0 1 26.207 69.397 A 44.462 44.462 0 0 1 18.7 70 L 0 70 Z M 8.7 61.9 L 19.8 61.9 A 27.709 27.709 0 0 0 25.272 61.384 A 21.084 21.084 0 0 0 30.65 59.55 Q 35.3 57.2 37.8 53.15 Q 40.3 49.1 41.45 44.6 Q 42.6 40.1 42.6 35 A 42.764 42.764 0 0 0 41.936 27.312 A 34.699 34.699 0 0 0 40.5 21.9 Q 38.4 16 33.3 12 A 18.672 18.672 0 0 0 23.775 8.166 A 24.409 24.409 0 0 0 20.9 8 L 8.7 8 L 8.7 61.9 Z" vector-effect="non-scaling-stroke"/></g></svg>