<svg width="54.501" height="72.401" viewBox="0 0 54.501 72.401" xmlns="http://www.w3.org/2000/svg"><g id="svgGroup" stroke-linecap="round" fill-rule="evenodd" font-size="9pt" stroke="#000" stroke-width="0.25mm" fill="none" style="stroke:#000;stroke-width:0.25mm;fill:none"><path d="M 52.4 12.3 L 44.6 16.8 A 27.204 27.204 0 0 0 41.844 13.363 A 20.073 20.073 0 0 0 38.4 10.45 A 12.856 12.856 0 0 0 34.286 8.703 Q 32.596 8.295 30.625 8.218 A 23.812 23.812 0 0 0 29.7 8.2 A 20.469 20.469 0 0 0 24.927 8.737 A 17.061 17.061 0 0 0 21.6 9.9 A 18.263 18.263 0 0 0 17.784 12.289 A 15.701 15.701 0 0 0 15.7 14.35 A 23.89 23.89 0 0 0 12.782 18.794 A 28.63 28.63 0 0 0 11.85 20.8 Q 10.3 24.5 9.65 28.35 Q 9 32.2 9 36.2 A 44.368 44.368 0 0 0 9.892 45.329 A 31.493 31.493 0 0 0 14.2 56.05 A 16.706 16.706 0 0 0 26.301 63.861 A 23.32 23.32 0 0 0 29.7 64.1 A 18.358 18.358 0 0 0 34.82 63.421 A 13.99 13.99 0 0 0 41.1 59.65 Q 45.4 55.2 45.4 48 L 45.4 45.2 L 32.7 45.2 L 32.7 37.2 L 54.5 37.2 L 54.5 45.6 A 37.283 37.283 0 0 1 53.698 53.58 Q 52.138 60.696 47.55 65.35 A 23.372 23.372 0 0 1 32.364 72.29 A 31.557 31.557 0 0 1 29.7 72.4 A 32.981 32.981 0 0 1 22.569 71.662 A 25.916 25.916 0 0 1 16.15 69.35 Q 10.3 66.3 6.85 61.1 Q 3.4 55.9 1.7 49.6 A 50.004 50.004 0 0 1 0.06 38.835 A 57.497 57.497 0 0 1 0 36.2 A 49.039 49.039 0 0 1 1.53 23.847 A 45.757 45.757 0 0 1 1.8 22.85 A 39.725 39.725 0 0 1 6.459 12.327 A 37.319 37.319 0 0 1 7.1 11.35 A 25.335 25.335 0 0 1 15.728 3.496 A 29.644 29.644 0 0 1 16.45 3.1 A 26.749 26.749 0 0 1 26.427 0.16 A 33.006 33.006 0 0 1 29.7 0 A 38.972 38.972 0 0 1 35.137 0.356 Q 37.955 0.754 40.267 1.597 A 17.631 17.631 0 0 1 43.75 3.3 A 26.985 26.985 0 0 1 51.208 10.495 A 32.235 32.235 0 0 1 52.4 12.3 Z" vector-effect="non-scaling-stroke"/></g></svg>