<svg width="49.701" height="70.001" viewBox="0 0 49.701 70.001" xmlns="http://www.w3.org/2000/svg"><g id="svgGroup" stroke-linecap="round" fill-rule="evenodd" font-size="9pt" stroke="#000" stroke-width="0.25mm" fill="none" style="stroke:#000;stroke-width:0.25mm;fill:none"><path d="M 8.7 70.001 L 0 70.001 L 0 0.001 L 27.6 0.001 A 37.446 37.446 0 0 1 33.623 0.452 Q 36.819 0.974 39.342 2.1 A 15.349 15.349 0 0 1 44.45 5.701 A 19.686 19.686 0 0 1 49.618 17.819 A 25.927 25.927 0 0 1 49.7 19.901 Q 49.7 26.801 45.65 32.251 A 17.316 17.316 0 0 1 38.758 37.694 A 25.381 25.381 0 0 1 33.4 39.401 L 48.4 70.001 L 38.6 70.001 L 24.2 40.001 L 8.7 40.001 L 8.7 70.001 Z M 8.7 8.101 L 8.7 31.901 L 27.8 31.901 Q 34.6 31.901 37.75 28.501 A 11.732 11.732 0 0 0 40.881 20.872 A 15.301 15.301 0 0 0 40.9 20.101 Q 40.9 15.301 37.85 11.701 A 9.183 9.183 0 0 0 33.969 9.058 Q 32.449 8.49 30.559 8.259 A 22.788 22.788 0 0 0 27.8 8.101 L 8.7 8.101 Z" vector-effect="non-scaling-stroke"/></g></svg>