<svg width="47.401" height="72.401" viewBox="0 0 47.401 72.401" xmlns="http://www.w3.org/2000/svg"><g id="svgGroup" stroke-linecap="round" fill-rule="evenodd" font-size="9pt" stroke="#000" stroke-width="0.25mm" fill="none" style="stroke:#000;stroke-width:0.25mm;fill:none"><path d="M 0 56.801 L 8.2 53.801 Q 10.4 58.601 14.7 61.401 A 17.361 17.361 0 0 0 23.135 64.151 A 21.422 21.422 0 0 0 24.6 64.201 A 21.703 21.703 0 0 0 28.681 63.84 Q 32.272 63.152 34.7 61.151 Q 38.4 58.101 38.4 52.401 A 11.756 11.756 0 0 0 37.634 48.08 A 10.631 10.631 0 0 0 34.25 43.601 Q 31.235 41.203 26.451 39.122 A 64.067 64.067 0 0 0 22.6 37.601 A 181.001 181.001 0 0 1 20.878 36.969 Q 18.492 36.08 16.764 35.349 A 62.177 62.177 0 0 1 16.65 35.301 A 31.637 31.637 0 0 1 14.789 34.431 Q 13.769 33.916 12.641 33.271 A 63.042 63.042 0 0 1 11.25 32.451 A 29.077 29.077 0 0 1 8.978 30.931 Q 7.893 30.124 7.036 29.299 A 15.372 15.372 0 0 1 6.4 28.651 A 14.867 14.867 0 0 1 4.549 26.14 A 19.878 19.878 0 0 1 3.35 23.751 A 15.964 15.964 0 0 1 2.137 18.487 A 18.848 18.848 0 0 1 2.1 17.301 A 15.439 15.439 0 0 1 7.029 5.796 A 20.315 20.315 0 0 1 7.9 5.001 Q 13.311 0.336 22.289 0.023 A 37.609 37.609 0 0 1 23.6 0.001 A 31.49 31.49 0 0 1 29.516 0.527 Q 33.809 1.348 37.1 3.451 Q 42.5 6.901 44.1 12.501 L 36.1 15.201 A 10.622 10.622 0 0 0 33.054 11.313 A 14.09 14.09 0 0 0 31.3 10.101 A 13.981 13.981 0 0 0 27 8.483 Q 25.26 8.124 23.267 8.102 A 23.707 23.707 0 0 0 23 8.101 A 19.983 19.983 0 0 0 19.509 8.387 Q 17.576 8.73 16.03 9.486 A 10.202 10.202 0 0 0 14.3 10.551 Q 11.1 13.001 11.1 17.301 Q 11.1 19.601 12.25 21.501 Q 13.292 23.222 15.402 24.616 A 15.487 15.487 0 0 0 15.85 24.901 Q 18.137 26.301 20.12 27.178 A 25.858 25.858 0 0 0 20.4 27.301 Q 22.5 28.201 26.2 29.601 A 96.662 96.662 0 0 1 29.425 30.854 Q 31.925 31.882 33.8 32.851 Q 36.378 34.183 39.326 36.29 A 66.388 66.388 0 0 1 40.3 37.001 Q 43.8 39.601 45.6 43.451 A 19.023 19.023 0 0 1 47.206 49.098 A 24.121 24.121 0 0 1 47.4 52.201 Q 47.4 61.601 41 67.001 A 22.336 22.336 0 0 1 31.033 71.748 A 32.04 32.04 0 0 1 24.4 72.401 A 30.632 30.632 0 0 1 16.208 71.347 A 25.139 25.139 0 0 1 8.95 68.051 Q 2.4 63.701 0 56.801 Z" vector-effect="non-scaling-stroke"/></g></svg>