<svg width="74" height="70" viewBox="0 0 74 70" xmlns="http://www.w3.org/2000/svg"><g id="svgGroup" stroke-linecap="round" fill-rule="evenodd" font-size="9pt" stroke="#000" stroke-width="0.25mm" fill="none" style="stroke:#000;stroke-width:0.25mm;fill:none"><path d="M 21.4 70 L 14.3 70 L 0 0 L 9.1 0 L 17.7 45.6 Q 18.6 50.1 19 53.1 A 1.556 1.556 0 0 1 19.03 52.963 Q 19.238 52.088 20.9 45.7 L 33.3 0 L 40.2 0 L 52.7 45.6 Q 53.9 50.1 54.3 52.4 Q 54.7 49.8 55.6 45.5 L 65.1 0 L 74 0 L 58.8 70 L 51.9 70 L 38.4 22.2 A 660.867 660.867 0 0 1 37.88 20.282 Q 36.844 16.437 36.6 15.3 A 47.147 47.147 0 0 1 36.219 17.134 Q 35.725 19.313 34.9 22.2 L 21.4 70 Z" vector-effect="non-scaling-stroke"/></g></svg>