# WaveFront *.obj file (generated by Autodesk ATF)

mtllib d60877e6-fe86-43d5-bd12-2fb6d4ff28ff.mtl

g Body1

v 9.472083 -11.853333 0.000000
v 3.016250 -11.853333 0.000000
v 3.016250 -11.853333 5.000000
v 9.472083 -11.853333 5.000000
v 9.472083 -3.254375 0.000000
v 9.472083 -3.254375 5.000000
v 11.773958 -18.520833 0.000000
v 11.773958 -13.917083 0.000000
v 11.773958 -13.917083 5.000000
v 11.773958 -18.520833 5.000000
v 9.472083 -18.520833 0.000000
v 9.472083 -18.520833 5.000000
v 9.472083 -13.917083 0.000000
v 9.472083 -13.917083 5.000000
v 0.000000 -13.917083 0.000000
v 0.000000 -13.917083 5.000000
v 0.000000 -12.541250 0.000000
v 0.000000 -12.541250 5.000000
v 9.604375 0.000000 0.000000
v 9.604375 0.000000 5.000000
v 11.773958 0.000000 0.000000
v 11.773958 0.000000 5.000000
v 11.773958 -11.853333 0.000000
v 11.773958 -11.853333 5.000000
v 14.393334 -11.853333 0.000000
v 14.393334 -11.853333 5.000000
v 14.393334 -13.917083 0.000000
v 14.393334 -13.917083 5.000000
vt -0.000000 0.000000 0.000000
vt 0.645583 0.000000 0.000000
vt -0.000000 0.500000 0.000000
vt 0.645583 0.500000 0.000000
vt -0.000000 0.000000 0.000000
vt 0.859896 0.000000 0.000000
vt -0.000000 0.500000 0.000000
vt 0.859896 0.500000 0.000000
vt 0.000000 0.000000 0.000000
vt 1.075267 0.000000 0.000000
vt 0.000000 0.500000 0.000000
vt 1.075267 0.500000 0.000000
vt 0.000000 0.000000 0.000000
vt 0.460375 0.000000 0.000000
vt 0.000000 0.500000 0.000000
vt 0.460375 0.500000 0.000000
vt 0.000000 0.000000 0.000000
vt 0.230188 0.000000 0.000000
vt 0.000000 0.500000 0.000000
vt 0.230188 0.500000 0.000000
vt -0.000000 0.000000 0.000000
vt 0.460375 0.000000 0.000000
vt -0.000000 0.500000 0.000000
vt 0.460375 0.500000 0.000000
vt 0.000000 0.000000 0.000000
vt 0.947208 0.000000 0.000000
vt 0.000000 0.500000 0.000000
vt 0.947208 0.500000 0.000000
vt -0.000000 0.000000 0.000000
vt 0.137583 0.000000 0.000000
vt -0.000000 0.500000 0.000000
vt 0.137583 0.500000 0.000000
vt -0.000000 0.000000 0.000000
vt 1.579642 0.000000 0.000000
vt -0.000000 0.500000 0.000000
vt 1.579642 0.500000 0.000000
vt -0.000000 0.000000 0.000000
vt 0.216958 0.000000 0.000000
vt -0.000000 0.500000 0.000000
vt 0.216958 0.500000 0.000000
vt 0.000000 0.000000 0.000000
vt 1.185333 0.000000 0.000000
vt 0.000000 0.500000 0.000000
vt 1.185333 0.500000 0.000000
vt -0.000000 0.000000 0.000000
vt 0.261938 0.000000 0.000000
vt -0.000000 0.500000 0.000000
vt 0.261938 0.500000 0.000000
vt 0.000000 0.000000 0.000000
vt 0.206375 0.000000 0.000000
vt 0.000000 0.500000 0.000000
vt 0.206375 0.500000 0.000000
vt 0.000000 0.000000 0.000000
vt 0.261938 0.000000 0.000000
vt 0.000000 0.500000 0.000000
vt 0.261938 0.500000 0.000000
vt 0.227542 0.600604 0.000000
vt -0.719667 -0.328083 0.000000
vt -0.418042 -0.259292 0.000000
vt -0.719667 -0.465667 0.000000
vt 0.227542 -0.465667 0.000000
vt 0.227542 -0.259292 0.000000
vt 0.457729 -0.259292 0.000000
vt 0.457729 0.926042 0.000000
vt 0.240771 0.926042 0.000000
vt 0.457729 -0.465667 0.000000
vt 0.719667 -0.465667 0.000000
vt 0.719667 -0.259292 0.000000
vt 0.227542 -0.926042 0.000000
vt 0.457729 -0.926042 0.000000
vt 0.418042 -0.259292 0.000000
vt 0.719667 -0.328083 0.000000
vt -0.227542 0.600604 0.000000
vt -0.240771 0.926042 0.000000
vt -0.457729 0.926042 0.000000
vt -0.227542 -0.259292 0.000000
vt -0.227542 -0.465667 0.000000
vt 0.719667 -0.465667 0.000000
vt -0.457729 -0.259292 0.000000
vt -0.457729 -0.465667 0.000000
vt -0.227542 -0.926042 0.000000
vt -0.457729 -0.926042 0.000000
vt -0.719667 -0.259292 0.000000
vt -0.719667 -0.465667 0.000000
vn 0.000000 0.100000 0.000000
vn 0.000000 0.100000 0.000000
vn 0.000000 0.100000 0.000000
vn 0.000000 0.100000 0.000000
vn -0.100000 0.000000 0.000000
vn -0.100000 0.000000 0.000000
vn -0.100000 0.000000 0.000000
vn -0.100000 0.000000 0.000000
vn 0.079970 -0.060039 0.000000
vn 0.079970 -0.060039 0.000000
vn 0.079970 -0.060039 0.000000
vn 0.079970 -0.060039 0.000000
vn 0.100000 0.000000 0.000000
vn 0.100000 0.000000 0.000000
vn 0.100000 0.000000 0.000000
vn 0.100000 0.000000 0.000000
vn 0.000000 -0.100000 0.000000
vn 0.000000 -0.100000 0.000000
vn 0.000000 -0.100000 0.000000
vn 0.000000 -0.100000 0.000000
vn -0.100000 0.000000 0.000000
vn -0.100000 0.000000 0.000000
vn -0.100000 0.000000 0.000000
vn -0.100000 0.000000 0.000000
vn 0.000000 -0.100000 0.000000
vn 0.000000 -0.100000 0.000000
vn 0.000000 -0.100000 0.000000
vn 0.000000 -0.100000 0.000000
vn -0.100000 0.000000 0.000000
vn -0.100000 0.000000 0.000000
vn -0.100000 0.000000 0.000000
vn -0.100000 0.000000 0.000000
vn -0.079393 0.060801 0.000000
vn -0.079393 0.060801 0.000000
vn -0.079393 0.060801 0.000000
vn -0.079393 0.060801 0.000000
vn 0.000000 0.100000 0.000000
vn 0.000000 0.100000 0.000000
vn 0.000000 0.100000 0.000000
vn 0.000000 0.100000 0.000000
vn 0.100000 -0.000000 0.000000
vn 0.100000 -0.000000 0.000000
vn 0.100000 -0.000000 0.000000
vn 0.100000 -0.000000 0.000000
vn 0.000000 0.100000 0.000000
vn 0.000000 0.100000 0.000000
vn 0.000000 0.100000 0.000000
vn 0.000000 0.100000 0.000000
vn 0.100000 0.000000 0.000000
vn 0.100000 0.000000 0.000000
vn 0.100000 0.000000 0.000000
vn 0.100000 0.000000 0.000000
vn 0.000000 -0.100000 0.000000
vn 0.000000 -0.100000 0.000000
vn 0.000000 -0.100000 0.000000
vn 0.000000 -0.100000 0.000000
vn 0.000000 0.000000 0.100000
vn 0.000000 0.000000 0.100000
vn 0.000000 0.000000 0.100000
vn 0.000000 0.000000 0.100000
vn 0.000000 0.000000 0.100000
vn 0.000000 0.000000 0.100000
vn 0.000000 0.000000 0.100000
vn 0.000000 0.000000 0.100000
vn 0.000000 0.000000 0.100000
vn 0.000000 0.000000 0.100000
vn 0.000000 0.000000 0.100000
vn 0.000000 0.000000 0.100000
vn 0.000000 0.000000 0.100000
vn 0.000000 0.000000 0.100000
vn -0.000000 0.000000 -0.100000
vn -0.000000 0.000000 -0.100000
vn -0.000000 0.000000 -0.100000
vn -0.000000 0.000000 -0.100000
vn -0.000000 0.000000 -0.100000
vn -0.000000 0.000000 -0.100000
vn -0.000000 0.000000 -0.100000
vn -0.000000 0.000000 -0.100000
vn -0.000000 0.000000 -0.100000
vn -0.000000 0.000000 -0.100000
vn -0.000000 0.000000 -0.100000
vn -0.000000 0.000000 -0.100000
vn -0.000000 0.000000 -0.100000
vn -0.000000 0.000000 -0.100000
usemtl Steel_-_Satin
f 1/1/1 2/2/2 4/3/3
f 4/3/3 2/2/2 3/4/4
f 5/5/5 1/6/6 6/7/7
f 6/7/7 1/6/6 4/8/8
f 2/9/9 5/10/10 3/11/11
f 3/11/11 5/10/10 6/12/12
f 7/13/13 8/14/14 10/15/15
f 10/15/15 8/14/14 9/16/16
f 11/17/17 7/18/18 12/19/19
f 12/19/19 7/18/18 10/20/20
f 13/21/21 11/22/22 14/23/23
f 14/23/23 11/22/22 12/24/24
f 15/25/25 13/26/26 16/27/27
f 16/27/27 13/26/26 14/28/28
f 17/29/29 15/30/30 18/31/31
f 18/31/31 15/30/30 16/32/32
f 19/33/33 17/34/34 20/35/35
f 20/35/35 17/34/34 18/36/36
f 21/37/37 19/38/38 22/39/39
f 22/39/39 19/38/38 20/40/40
f 23/41/41 21/42/42 24/43/43
f 24/43/43 21/42/42 22/44/44
f 25/45/45 23/46/46 26/47/47
f 26/47/47 23/46/46 24/48/48
f 27/49/49 25/50/50 28/51/51
f 28/51/51 25/50/50 26/52/52
f 8/53/53 27/54/54 9/55/55
f 9/55/55 27/54/54 28/56/56
f 6/57/57 18/58/58 3/59/59
f 3/59/59 18/58/58 16/60/60
f 3/59/59 16/60/60 14/61/61
f 4/62/62 24/63/63 6/57/57
f 6/57/57 24/63/63 22/64/64
f 6/57/57 22/64/64 20/65/65
f 3/59/59 14/61/61 4/62/62
f 4/62/62 14/61/61 9/66/66
f 4/62/62 9/66/66 24/63/63
f 24/63/63 9/66/66 28/67/67
f 24/63/63 28/67/67 26/68/68
f 20/65/65 18/58/58 6/57/57
f 12/69/69 10/70/70 14/61/61
f 14/61/61 10/70/70 9/66/66
f 2/71/71 17/72/72 5/73/73
f 5/73/73 17/72/72 19/74/74
f 5/73/73 19/74/74 21/75/75
f 1/76/76 13/77/77 2/71/71
f 2/71/71 13/77/77 15/78/78
f 2/71/71 15/78/78 17/72/72
f 5/73/73 23/79/79 1/76/76
f 1/76/76 23/79/79 8/80/80
f 1/76/76 8/80/80 13/77/77
f 13/77/77 8/80/80 11/81/81
f 11/81/81 8/80/80 7/82/82
f 25/83/83 27/84/84 23/79/79
f 23/79/79 27/84/84 8/80/80
f 21/75/75 23/79/79 5/73/73

# 28 vertices
# 84 texture params
# 84 normals
# 56 facets

# 1 groups
