# WaveFront *.obj file (generated by Autodesk ATF)

mtllib 7b806415-094a-4514-9977-5308865078f5.mtl

g Body1

v 6.323542 -14.829896 0.000000
v 6.475677 -13.874915 0.000000
v 6.667500 -12.875286 0.000000
v 6.899010 -11.831009 0.000000
v 7.170208 -10.742083 0.000000
v 7.170208 -10.742083 5.000000
v 6.899010 -11.831009 5.000000
v 6.667500 -12.875286 5.000000
v 6.475677 -13.874915 5.000000
v 6.323542 -14.829896 5.000000
v 6.058958 -18.520833 0.000000
v 6.125104 -16.685286 0.000000
v 6.125104 -16.685286 5.000000
v 6.058958 -18.520833 5.000000
v 3.704167 -18.520833 0.000000
v 3.704167 -18.520833 5.000000
v 4.189942 -13.267796 0.000000
v 3.929229 -15.008735 0.000000
v 3.767132 -16.761608 0.000000
v 3.767132 -16.761608 5.000000
v 3.929229 -15.008735 5.000000
v 4.189942 -13.267796 5.000000
v 5.027083 -9.935104 0.000000
v 4.698430 -11.033147 0.000000
v 4.419197 -12.144785 0.000000
v 4.419197 -12.144785 5.000000
v 4.698430 -11.033147 5.000000
v 5.027083 -9.935104 5.000000
v 7.113587 -5.305425 0.000000
v 6.311392 -6.799072 0.000000
v 5.614772 -8.344782 0.000000
v 5.614772 -8.344782 5.000000
v 6.311392 -6.799072 5.000000
v 7.113587 -5.305425 5.000000
v 9.207500 -2.143125 0.000000
v 8.467652 -3.169094 0.000000
v 7.769311 -4.223754 0.000000
v 7.769311 -4.223754 5.000000
v 8.467652 -3.169094 5.000000
v 9.207500 -2.143125 5.000000
v 0.000000 -2.143125 0.000000
v 0.000000 -2.143125 5.000000
v 0.000000 0.000000 0.000000
v 0.000000 0.000000 5.000000
v 11.773958 0.000000 0.000000
v 11.773958 0.000000 5.000000
v 11.773958 -2.090208 0.000000
v 11.773958 -2.090208 5.000000
v 8.929688 -6.257396 0.000000
v 9.548978 -5.148626 0.000000
v 10.229453 -4.084505 0.000000
v 10.971113 -3.065033 0.000000
v 10.971113 -3.065033 5.000000
v 10.229453 -4.084505 5.000000
v 9.548978 -5.148626 5.000000
v 8.929688 -6.257396 5.000000
v 7.593542 -9.344819 0.000000
v 7.987722 -8.294020 0.000000
v 8.433469 -7.264036 0.000000
v 8.433469 -7.264036 5.000000
v 7.987722 -8.294020 5.000000
v 7.593542 -9.344819 5.000000
v 7.299639 -10.272843 0.000000
v 7.440780 -9.806990 0.000000
v 7.440780 -9.806990 5.000000
v 7.299639 -10.272843 5.000000
vt -0.417461 0.000000 0.000000
vt -0.313096 0.000000 0.000000
vt -0.417461 0.500000 0.000000
vt -0.313096 0.500000 0.000000
vt -0.208731 0.000000 0.000000
vt -0.208731 0.500000 0.000000
vt -0.104365 0.000000 0.000000
vt -0.104365 0.500000 0.000000
vt 0.000000 0.000000 0.000000
vt 0.000000 0.500000 0.000000
vt -0.370041 0.000000 0.000000
vt -0.185021 0.000000 0.000000
vt -0.370041 0.500000 0.000000
vt -0.185021 0.500000 0.000000
vt 0.000000 0.000000 0.000000
vt 0.000000 0.500000 0.000000
vt 0.000000 0.000000 0.000000
vt 0.235479 0.000000 0.000000
vt 0.000000 0.500000 0.000000
vt 0.235479 0.500000 0.000000
vt -0.500000 -0.528176 0.000000
vt -0.000000 -0.528176 0.000000
vt -0.500000 -0.352117 0.000000
vt -0.000000 -0.352117 0.000000
vt -0.500000 -0.176059 0.000000
vt -0.000000 -0.176059 0.000000
vt -0.500000 0.000000 0.000000
vt -0.000000 0.000000 0.000000
vt -0.500000 -0.343880 0.000000
vt -0.000000 -0.343880 0.000000
vt -0.500000 -0.229254 0.000000
vt -0.000000 -0.229254 0.000000
vt -0.000000 -0.114627 0.000000
vt -0.000000 0.000000 0.000000
vt -0.500000 0.000000 0.000000
vt -0.500000 -0.114627 0.000000
vt -0.500000 -0.508733 0.000000
vt -0.000000 -0.508733 0.000000
vt -0.500000 -0.339155 0.000000
vt -0.000000 -0.339155 0.000000
vt -0.500000 -0.169578 0.000000
vt -0.000000 -0.169578 0.000000
vt -0.500000 0.000000 0.000000
vt -0.000000 0.000000 0.000000
vt -0.500000 -0.379497 0.000000
vt -0.000000 -0.379497 0.000000
vt -0.500000 -0.252998 0.000000
vt -0.000000 -0.252998 0.000000
vt -0.000000 -0.126499 0.000000
vt -0.000000 0.000000 0.000000
vt -0.500000 0.000000 0.000000
vt -0.500000 -0.126499 0.000000
vt 0.000000 0.000000 0.000000
vt 0.920750 0.000000 0.000000
vt -0.000000 0.500000 0.000000
vt 0.920750 0.500000 0.000000
vt -0.000000 0.000000 0.000000
vt 0.214313 0.000000 0.000000
vt -0.000000 0.500000 0.000000
vt 0.214313 0.500000 0.000000
vt -0.000000 0.000000 0.000000
vt 1.177396 0.000000 0.000000
vt -0.000000 0.500000 0.000000
vt 1.177396 0.500000 0.000000
vt 0.000000 0.000000 0.000000
vt 0.209021 0.000000 0.000000
vt -0.000000 0.500000 0.000000
vt 0.209021 0.500000 0.000000
vt -0.504533 0.000000 0.000000
vt -0.378399 0.000000 0.000000
vt -0.504533 0.500000 0.000000
vt -0.378399 0.500000 0.000000
vt -0.252266 0.000000 0.000000
vt -0.252266 0.500000 0.000000
vt -0.126133 0.000000 0.000000
vt -0.126133 0.500000 0.000000
vt 0.000000 0.000000 0.000000
vt 0.000000 0.500000 0.000000
vt 0.500000 -0.000000 0.000000
vt 0.000000 -0.000000 0.000000
vt 0.500000 -0.112241 0.000000
vt 0.000000 -0.112241 0.000000
vt 0.000000 -0.224483 0.000000
vt 0.000000 -0.336724 0.000000
vt 0.500000 -0.336724 0.000000
vt 0.500000 -0.224483 0.000000
vt 0.500000 -0.000000 0.000000
vt 0.000000 -0.000000 0.000000
vt 0.500000 -0.048678 0.000000
vt -0.000000 -0.048678 0.000000
vt 0.500000 -0.097355 0.000000
vt -0.000000 -0.097355 0.000000
vt 0.500000 -0.146033 0.000000
vt 0.000000 -0.146033 0.000000
vt 0.101203 -0.257059 0.000000
vt 0.128323 -0.148167 0.000000
vt -0.085990 -0.067469 0.000000
vt 0.141266 -0.101243 0.000000
vt -0.027221 0.091563 0.000000
vt 0.155380 -0.054657 0.000000
vt 0.170656 -0.008440 0.000000
vt 0.210074 0.096640 0.000000
vt 0.042441 0.246134 0.000000
vt 0.254649 0.199638 0.000000
vt 0.122661 0.395499 0.000000
vt 0.304271 0.300302 0.000000
vt 0.188233 0.503666 0.000000
vt 0.366200 0.411179 0.000000
vt 0.258067 0.609132 0.000000
vt 0.434247 0.517591 0.000000
vt 0.332052 0.711729 0.000000
vt 0.508413 0.619538 0.000000
vt 0.588698 0.717021 0.000000
vt 0.588698 0.926042 0.000000
vt -0.588698 0.926042 0.000000
vt -0.588698 0.711729 0.000000
vt -0.118855 -0.177273 0.000000
vt 0.078052 -0.361487 0.000000
vt -0.146778 -0.288437 0.000000
vt -0.169704 -0.400738 0.000000
vt -0.195775 -0.574832 0.000000
vt 0.043656 -0.556948 0.000000
vt 0.058870 -0.461450 0.000000
vt 0.023812 -0.742487 0.000000
vt -0.211985 -0.750119 0.000000
vt 0.017198 -0.926042 0.000000
vt -0.218281 -0.926042 0.000000
vt -0.210074 0.096640 0.000000
vt -0.170656 -0.008440 0.000000
vt 0.027221 0.091563 0.000000
vt -0.155380 -0.054657 0.000000
vt -0.141266 -0.101243 0.000000
vt 0.085990 -0.067469 0.000000
vt -0.128323 -0.148167 0.000000
vt -0.101203 -0.257059 0.000000
vt 0.118855 -0.177273 0.000000
vt -0.078052 -0.361487 0.000000
vt 0.146778 -0.288437 0.000000
vt 0.169704 -0.400738 0.000000
vt -0.058870 -0.461450 0.000000
vt -0.043656 -0.556948 0.000000
vt 0.195775 -0.574832 0.000000
vt -0.023812 -0.742487 0.000000
vt 0.211985 -0.750119 0.000000
vt -0.017198 -0.926042 0.000000
vt 0.218281 -0.926042 0.000000
vt -0.042441 0.246134 0.000000
vt -0.254649 0.199638 0.000000
vt -0.122661 0.395499 0.000000
vt -0.304271 0.300302 0.000000
vt -0.188233 0.503666 0.000000
vt -0.366200 0.411179 0.000000
vt -0.258067 0.609132 0.000000
vt -0.434247 0.517591 0.000000
vt -0.332052 0.711729 0.000000
vt -0.508413 0.619538 0.000000
vt -0.588698 0.717021 0.000000
vt -0.588698 0.926042 0.000000
vt 0.588698 0.926042 0.000000
vt 0.588698 0.711729 0.000000
vn 0.099009 -0.014044 0.000000
vn 0.098487 -0.017331 0.000000
vn 0.099009 -0.014044 0.000000
vn 0.098487 -0.017331 0.000000
vn 0.097922 -0.020282 0.000000
vn 0.097922 -0.020282 0.000000
vn 0.097334 -0.022938 0.000000
vn 0.097334 -0.022938 0.000000
vn 0.096737 -0.025336 0.000000
vn 0.096737 -0.025336 0.000000
vn 0.100000 0.000000 0.000000
vn 0.099744 -0.007150 0.000000
vn 0.100000 0.000000 0.000000
vn 0.099744 -0.007150 0.000000
vn 0.000000 -0.100000 0.000000
vn 0.000000 -0.100000 0.000000
vn 0.000000 -0.100000 0.000000
vn 0.000000 -0.100000 0.000000
vn -0.098440 0.017595 -0.000000
vn -0.098440 0.017595 -0.000000
vn -0.099276 0.012014 -0.000000
vn -0.099276 0.012014 -0.000000
vn -0.099795 0.006395 -0.000000
vn -0.099795 0.006395 -0.000000
vn -0.099997 0.000756 -0.000000
vn -0.099997 0.000756 -0.000000
vn -0.095136 0.030809 -0.000000
vn -0.095136 0.030809 -0.000000
vn -0.096418 0.026525 -0.000000
vn -0.096418 0.026525 -0.000000
vn -0.097507 0.022188 -0.000000
vn -0.098402 0.017806 -0.000000
vn -0.098402 0.017806 -0.000000
vn -0.097507 0.022188 -0.000000
vn -0.086403 0.050345 -0.000000
vn -0.086403 0.050345 -0.000000
vn -0.089688 0.044228 -0.000000
vn -0.089688 0.044228 -0.000000
vn -0.092540 0.037898 -0.000000
vn -0.092540 0.037898 -0.000000
vn -0.094947 0.031386 -0.000000
vn -0.094947 0.031386 -0.000000
vn -0.079928 0.060096 -0.000000
vn -0.079928 0.060096 -0.000000
vn -0.082261 0.056861 -0.000000
vn -0.082261 0.056861 -0.000000
vn -0.084463 0.053535 -0.000000
vn -0.086531 0.050124 -0.000000
vn -0.086531 0.050124 -0.000000
vn -0.084463 0.053535 -0.000000
vn -0.000000 -0.100000 0.000000
vn -0.000000 -0.100000 0.000000
vn -0.000000 -0.100000 0.000000
vn -0.000000 -0.100000 0.000000
vn -0.100000 0.000000 0.000000
vn -0.100000 0.000000 0.000000
vn -0.100000 0.000000 0.000000
vn -0.100000 0.000000 0.000000
vn 0.000000 0.100000 0.000000
vn 0.000000 0.100000 0.000000
vn 0.000000 0.100000 0.000000
vn 0.000000 0.100000 0.000000
vn 0.100000 0.000000 0.000000
vn 0.100000 0.000000 0.000000
vn 0.100000 0.000000 0.000000
vn 0.100000 0.000000 0.000000
vn 0.088705 -0.046168 0.000000
vn 0.085818 -0.051334 0.000000
vn 0.088705 -0.046168 0.000000
vn 0.085818 -0.051334 0.000000
vn 0.082595 -0.056374 0.000000
vn 0.082595 -0.056374 0.000000
vn 0.079062 -0.061231 0.000000
vn 0.079062 -0.061231 0.000000
vn 0.075258 -0.065850 0.000000
vn 0.075258 -0.065850 0.000000
vn 0.094471 -0.032792 0.000000
vn 0.094471 -0.032792 0.000000
vn 0.092730 -0.037431 0.000000
vn 0.092730 -0.037431 0.000000
vn 0.090762 -0.041979 0.000000
vn 0.088571 -0.046423 0.000000
vn 0.088571 -0.046423 0.000000
vn 0.090762 -0.041979 0.000000
vn 0.096725 -0.025381 0.000000
vn 0.096725 -0.025381 0.000000
vn 0.096060 -0.027795 0.000000
vn 0.096060 -0.027795 0.000000
vn 0.095333 -0.030192 0.000000
vn 0.095333 -0.030192 0.000000
vn 0.094547 -0.032570 0.000000
vn 0.094547 -0.032570 0.000000
vn 0.000000 0.000000 0.100000
vn 0.000000 0.000000 0.100000
vn 0.000000 0.000000 0.100000
vn 0.000000 0.000000 0.100000
vn 0.000000 0.000000 0.100000
vn 0.000000 0.000000 0.100000
vn 0.000000 0.000000 0.100000
vn 0.000000 0.000000 0.100000
vn 0.000000 0.000000 0.100000
vn 0.000000 0.000000 0.100000
vn 0.000000 0.000000 0.100000
vn 0.000000 0.000000 0.100000
vn 0.000000 0.000000 0.100000
vn 0.000000 0.000000 0.100000
vn 0.000000 0.000000 0.100000
vn 0.000000 0.000000 0.100000
vn 0.000000 0.000000 0.100000
vn 0.000000 0.000000 0.100000
vn 0.000000 0.000000 0.100000
vn 0.000000 0.000000 0.100000
vn 0.000000 0.000000 0.100000
vn 0.000000 0.000000 0.100000
vn 0.000000 0.000000 0.100000
vn 0.000000 0.000000 0.100000
vn 0.000000 0.000000 0.100000
vn 0.000000 0.000000 0.100000
vn 0.000000 0.000000 0.100000
vn 0.000000 0.000000 0.100000
vn 0.000000 0.000000 0.100000
vn 0.000000 0.000000 0.100000
vn 0.000000 0.000000 0.100000
vn 0.000000 0.000000 0.100000
vn 0.000000 0.000000 0.100000
vn -0.000000 0.000000 -0.100000
vn -0.000000 0.000000 -0.100000
vn -0.000000 0.000000 -0.100000
vn -0.000000 0.000000 -0.100000
vn -0.000000 0.000000 -0.100000
vn -0.000000 0.000000 -0.100000
vn -0.000000 0.000000 -0.100000
vn -0.000000 0.000000 -0.100000
vn -0.000000 0.000000 -0.100000
vn -0.000000 0.000000 -0.100000
vn -0.000000 0.000000 -0.100000
vn -0.000000 0.000000 -0.100000
vn -0.000000 0.000000 -0.100000
vn -0.000000 0.000000 -0.100000
vn -0.000000 0.000000 -0.100000
vn -0.000000 0.000000 -0.100000
vn -0.000000 0.000000 -0.100000
vn -0.000000 0.000000 -0.100000
vn -0.000000 0.000000 -0.100000
vn -0.000000 0.000000 -0.100000
vn -0.000000 0.000000 -0.100000
vn -0.000000 0.000000 -0.100000
vn -0.000000 0.000000 -0.100000
vn -0.000000 0.000000 -0.100000
vn -0.000000 0.000000 -0.100000
vn -0.000000 0.000000 -0.100000
vn -0.000000 0.000000 -0.100000
vn -0.000000 0.000000 -0.100000
vn -0.000000 0.000000 -0.100000
vn -0.000000 0.000000 -0.100000
vn -0.000000 0.000000 -0.100000
vn -0.000000 0.000000 -0.100000
vn -0.000000 0.000000 -0.100000
usemtl Steel_-_Satin
f 1/1/1 2/2/2 10/3/3
f 10/3/3 2/2/2 9/4/4
f 9/4/4 2/2/2 3/5/5
f 9/4/4 3/5/5 8/6/6
f 8/6/6 3/5/5 4/7/7
f 8/6/6 4/7/7 7/8/8
f 7/8/8 4/7/7 5/9/9
f 7/8/8 5/9/9 6/10/10
f 11/11/11 12/12/12 14/13/13
f 14/13/13 12/12/12 13/14/14
f 13/14/14 12/12/12 1/15/1
f 13/14/14 1/15/1 10/16/3
f 15/17/15 11/18/16 16/19/17
f 16/19/17 11/18/16 14/20/18
f 22/21/19 17/22/20 21/23/21
f 21/23/21 17/22/20 18/24/22
f 21/23/21 18/24/22 20/25/23
f 20/25/23 18/24/22 19/26/24
f 20/25/23 19/26/24 16/27/25
f 16/27/25 19/26/24 15/28/26
f 28/29/27 23/30/28 27/31/29
f 27/31/29 23/30/28 24/32/30
f 27/31/29 24/32/30 25/33/31
f 17/34/32 22/35/33 25/33/31
f 25/33/31 22/35/33 26/36/34
f 25/33/31 26/36/34 27/31/29
f 34/37/35 29/38/36 33/39/37
f 33/39/37 29/38/36 30/40/38
f 33/39/37 30/40/38 32/41/39
f 32/41/39 30/40/38 31/42/40
f 32/41/39 31/42/40 28/43/41
f 28/43/41 31/42/40 23/44/42
f 40/45/43 35/46/44 39/47/45
f 39/47/45 35/46/44 36/48/46
f 39/47/45 36/48/46 37/49/47
f 29/50/48 34/51/49 37/49/47
f 37/49/47 34/51/49 38/52/50
f 37/49/47 38/52/50 39/47/45
f 41/53/51 35/54/52 42/55/53
f 42/55/53 35/54/52 40/56/54
f 43/57/55 41/58/56 44/59/57
f 44/59/57 41/58/56 42/60/58
f 45/61/59 43/62/60 46/63/61
f 46/63/61 43/62/60 44/64/62
f 47/65/63 45/66/64 48/67/65
f 48/67/65 45/66/64 46/68/66
f 49/69/67 50/70/68 56/71/69
f 56/71/69 50/70/68 55/72/70
f 55/72/70 50/70/68 51/73/71
f 55/72/70 51/73/71 54/74/72
f 54/74/72 51/73/71 52/75/73
f 54/74/72 52/75/73 53/76/74
f 53/76/74 52/75/73 47/77/75
f 53/76/74 47/77/75 48/78/76
f 62/79/77 57/80/78 61/81/79
f 61/81/79 57/80/78 58/82/80
f 61/81/79 58/82/80 59/83/81
f 49/84/82 56/85/83 59/83/81
f 59/83/81 56/85/83 60/86/84
f 59/83/81 60/86/84 61/81/79
f 6/87/85 5/88/86 66/89/87
f 66/89/87 5/88/86 63/90/88
f 66/89/87 63/90/88 65/91/89
f 65/91/89 63/90/88 64/92/90
f 65/91/89 64/92/90 62/93/91
f 62/93/91 64/92/90 57/94/92
f 7/95/93 6/96/94 28/97/95
f 28/97/95 6/96/94 66/98/96
f 28/97/95 66/98/96 32/99/97
f 32/99/97 66/98/96 65/100/98
f 32/99/97 65/100/98 62/101/99
f 62/101/99 61/102/100 32/99/97
f 32/99/97 61/102/100 33/103/101
f 33/103/101 61/102/100 60/104/102
f 33/103/101 60/104/102 34/105/103
f 34/105/103 60/104/102 56/106/104
f 34/105/103 56/106/104 38/107/105
f 38/107/105 56/106/104 55/108/106
f 38/107/105 55/108/106 39/109/107
f 39/109/107 55/108/106 54/110/108
f 39/109/107 54/110/108 40/111/109
f 40/111/109 54/110/108 53/112/110
f 40/111/109 53/112/110 48/113/111
f 48/113/111 46/114/112 40/111/109
f 40/111/109 46/114/112 44/115/113
f 40/111/109 44/115/113 42/116/114
f 28/97/95 27/117/115 7/95/93
f 7/95/93 27/117/115 8/118/116
f 8/118/116 27/117/115 26/119/117
f 8/118/116 26/119/117 22/120/118
f 21/121/119 10/122/120 22/120/118
f 22/120/118 10/122/120 9/123/121
f 22/120/118 9/123/121 8/118/116
f 10/122/120 21/121/119 13/124/122
f 13/124/122 21/121/119 20/125/123
f 13/124/122 20/125/123 14/126/124
f 14/126/124 20/125/123 16/127/125
f 58/128/126 57/129/127 31/130/128
f 31/130/128 57/129/127 64/131/129
f 31/130/128 64/131/129 63/132/130
f 31/130/128 63/132/130 23/133/131
f 23/133/131 63/132/130 5/134/132
f 23/133/131 5/134/132 4/135/133
f 23/133/131 4/135/133 24/136/134
f 24/136/134 4/135/133 3/137/135
f 24/136/134 3/137/135 25/138/136
f 25/138/136 3/137/135 17/139/137
f 17/139/137 3/137/135 2/140/138
f 17/139/137 2/140/138 1/141/139
f 17/139/137 1/141/139 18/142/140
f 18/142/140 1/141/139 12/143/141
f 18/142/140 12/143/141 19/144/142
f 19/144/142 12/143/141 11/145/143
f 19/144/142 11/145/143 15/146/144
f 31/130/128 30/147/145 58/128/126
f 58/128/126 30/147/145 59/148/146
f 59/148/146 30/147/145 29/149/147
f 59/148/146 29/149/147 49/150/148
f 49/150/148 29/149/147 37/151/149
f 49/150/148 37/151/149 50/152/150
f 50/152/150 37/151/149 36/153/151
f 50/152/150 36/153/151 51/154/152
f 51/154/152 36/153/151 35/155/153
f 51/154/152 35/155/153 52/156/154
f 52/156/154 35/155/153 47/157/155
f 47/157/155 35/155/153 45/158/156
f 45/158/156 35/155/153 43/159/157
f 43/159/157 35/155/153 41/160/158

# 66 vertices
# 160 texture params
# 158 normals
# 128 facets

# 1 groups
