# WaveFront *.obj file (generated by Autodesk ATF)

mtllib f465feec-7f06-4ee0-b87c-a6e11639814c.mtl

g Body1

v 13.626042 -18.520833 0.000000
v 7.011458 -6.402917 0.000000
v 7.011458 -6.402917 5.000000
v 13.626042 -18.520833 5.000000
v 10.953750 -18.520833 0.000000
v 10.953750 -18.520833 5.000000
v 5.450417 -8.334375 0.000000
v 5.450417 -8.334375 5.000000
v 2.301875 -12.197291 0.000000
v 2.301875 -12.197291 5.000000
v 2.301875 -18.520833 0.000000
v 2.301875 -18.520833 5.000000
v 0.000000 -18.520833 0.000000
v 0.000000 -18.520833 5.000000
v 0.000000 0.000000 0.000000
v 0.000000 0.000000 5.000000
v 2.301875 0.000000 0.000000
v 2.301875 0.000000 5.000000
v 2.301875 -9.075208 0.000000
v 2.301875 -9.075208 5.000000
v 9.525000 0.000000 0.000000
v 9.525000 0.000000 5.000000
v 12.117916 0.000000 0.000000
v 12.117916 0.000000 5.000000
vt 0.000000 0.000000 0.000000
vt 1.380567 0.000000 0.000000
vt 0.000000 0.500000 0.000000
vt 1.380567 0.500000 0.000000
vt 0.000000 0.000000 0.000000
vt 0.267229 0.000000 0.000000
vt 0.000000 0.500000 0.000000
vt 0.267229 0.500000 0.000000
vt 0.000000 0.000000 0.000000
vt 1.157802 0.000000 0.000000
vt 0.000000 0.500000 0.000000
vt 1.157802 0.500000 0.000000
vt -0.000000 0.000000 0.000000
vt 0.498352 0.000000 0.000000
vt -0.000000 0.500000 0.000000
vt 0.498352 0.500000 0.000000
vt 0.000000 0.000000 0.000000
vt 0.632354 0.000000 0.000000
vt 0.000000 0.500000 0.000000
vt 0.632354 0.500000 0.000000
vt 0.000000 0.000000 0.000000
vt 0.230187 0.000000 0.000000
vt 0.000000 0.500000 0.000000
vt 0.230187 0.500000 0.000000
vt -0.000000 0.000000 0.000000
vt 1.852083 0.000000 0.000000
vt -0.000000 0.500000 0.000000
vt 1.852083 0.500000 0.000000
vt -0.000000 0.000000 0.000000
vt 0.230187 0.000000 0.000000
vt -0.000000 0.500000 0.000000
vt 0.230187 0.500000 0.000000
vt 0.000000 0.000000 0.000000
vt 0.907521 0.000000 0.000000
vt 0.000000 0.500000 0.000000
vt 0.907521 0.500000 0.000000
vt -0.000000 0.000000 0.000000
vt 1.159883 0.000000 0.000000
vt -0.000000 0.500000 0.000000
vt 1.159883 0.500000 0.000000
vt -0.000000 0.000000 0.000000
vt 0.259292 0.000000 0.000000
vt -0.000000 0.500000 0.000000
vt 0.259292 0.500000 0.000000
vt 0.000000 0.000000 0.000000
vt 0.818983 0.000000 0.000000
vt 0.000000 0.500000 0.000000
vt 0.818983 0.500000 0.000000
vt 0.530490 0.926042 0.000000
vt 0.271198 0.926042 0.000000
vt 0.019844 0.285750 0.000000
vt -0.451115 0.018521 0.000000
vt -0.136260 0.092604 0.000000
vt -0.451115 -0.293687 0.000000
vt -0.681302 -0.926042 0.000000
vt -0.451115 -0.926042 0.000000
vt -0.451115 0.926042 0.000000
vt -0.681302 0.926042 0.000000
vt 0.414073 -0.926042 0.000000
vt 0.681302 -0.926042 0.000000
vt -0.530490 0.926042 0.000000
vt -0.019844 0.285750 0.000000
vt -0.271198 0.926042 0.000000
vt 0.451115 0.018521 0.000000
vt 0.136260 0.092604 0.000000
vt 0.451115 -0.293687 0.000000
vt -0.681302 -0.926042 0.000000
vt -0.414073 -0.926042 0.000000
vt 0.451115 -0.926042 0.000000
vt 0.681302 -0.926042 0.000000
vt 0.681302 0.926042 0.000000
vt 0.451115 0.926042 0.000000
vn 0.087775 0.047912 0.000000
vn 0.087775 0.047912 0.000000
vn 0.087775 0.047912 0.000000
vn 0.087775 0.047912 0.000000
vn 0.000000 -0.100000 0.000000
vn 0.000000 -0.100000 0.000000
vn 0.000000 -0.100000 0.000000
vn 0.000000 -0.100000 0.000000
vn -0.087981 -0.047533 0.000000
vn -0.087981 -0.047533 0.000000
vn -0.087981 -0.047533 0.000000
vn -0.087981 -0.047533 0.000000
vn 0.077514 -0.063179 0.000000
vn 0.077514 -0.063179 0.000000
vn 0.077514 -0.063179 0.000000
vn 0.077514 -0.063179 0.000000
vn 0.100000 -0.000000 0.000000
vn 0.100000 -0.000000 0.000000
vn 0.100000 -0.000000 0.000000
vn 0.100000 -0.000000 0.000000
vn 0.000000 -0.100000 0.000000
vn 0.000000 -0.100000 0.000000
vn 0.000000 -0.100000 0.000000
vn 0.000000 -0.100000 0.000000
vn -0.100000 0.000000 0.000000
vn -0.100000 0.000000 0.000000
vn -0.100000 0.000000 0.000000
vn -0.100000 0.000000 0.000000
vn 0.000000 0.100000 0.000000
vn 0.000000 0.100000 0.000000
vn 0.000000 0.100000 0.000000
vn 0.000000 0.100000 0.000000
vn 0.100000 0.000000 0.000000
vn 0.100000 0.000000 0.000000
vn 0.100000 0.000000 0.000000
vn 0.100000 0.000000 0.000000
vn -0.078242 0.062275 0.000000
vn -0.078242 0.062275 0.000000
vn -0.078242 0.062275 0.000000
vn -0.078242 0.062275 0.000000
vn 0.000000 0.100000 0.000000
vn 0.000000 0.100000 0.000000
vn 0.000000 0.100000 0.000000
vn 0.000000 0.100000 0.000000
vn 0.078181 -0.062351 0.000000
vn 0.078181 -0.062351 0.000000
vn 0.078181 -0.062351 0.000000
vn 0.078181 -0.062351 0.000000
vn 0.000000 0.000000 0.100000
vn 0.000000 0.000000 0.100000
vn 0.000000 0.000000 0.100000
vn 0.000000 0.000000 0.100000
vn 0.000000 0.000000 0.100000
vn 0.000000 0.000000 0.100000
vn 0.000000 0.000000 0.100000
vn 0.000000 0.000000 0.100000
vn 0.000000 0.000000 0.100000
vn 0.000000 0.000000 0.100000
vn 0.000000 0.000000 0.100000
vn 0.000000 0.000000 0.100000
vn -0.000000 0.000000 -0.100000
vn -0.000000 0.000000 -0.100000
vn -0.000000 0.000000 -0.100000
vn -0.000000 0.000000 -0.100000
vn -0.000000 0.000000 -0.100000
vn -0.000000 0.000000 -0.100000
vn -0.000000 0.000000 -0.100000
vn -0.000000 0.000000 -0.100000
vn -0.000000 0.000000 -0.100000
vn -0.000000 0.000000 -0.100000
vn -0.000000 0.000000 -0.100000
vn -0.000000 0.000000 -0.100000
usemtl Steel_-_Satin
f 1/1/1 2/2/2 4/3/3
f 4/3/3 2/2/2 3/4/4
f 5/5/5 1/6/6 6/7/7
f 6/7/7 1/6/6 4/8/8
f 7/9/9 5/10/10 8/11/11
f 8/11/11 5/10/10 6/12/12
f 9/13/13 7/14/14 10/15/15
f 10/15/15 7/14/14 8/16/16
f 11/17/17 9/18/18 12/19/19
f 12/19/19 9/18/18 10/20/20
f 13/21/21 11/22/22 14/23/23
f 14/23/23 11/22/22 12/24/24
f 15/25/25 13/26/26 16/27/27
f 16/27/27 13/26/26 14/28/28
f 17/29/29 15/30/30 18/31/31
f 18/31/31 15/30/30 16/32/32
f 19/33/33 17/34/34 20/35/35
f 20/35/35 17/34/34 18/36/36
f 21/37/37 19/38/38 22/39/39
f 22/39/39 19/38/38 20/40/40
f 23/41/41 21/42/42 24/43/43
f 24/43/43 21/42/42 22/44/44
f 2/45/45 23/46/46 3/47/47
f 3/47/47 23/46/46 24/48/48
f 24/49/49 22/50/50 3/51/51
f 3/51/51 22/50/50 20/52/52
f 3/51/51 20/52/52 8/53/53
f 8/53/53 20/52/52 10/54/54
f 10/54/54 20/52/52 14/55/55
f 10/54/54 14/55/55 12/56/56
f 18/57/57 16/58/58 20/52/52
f 20/52/52 16/58/58 14/55/55
f 8/53/53 6/59/59 3/51/51
f 3/51/51 6/59/59 4/60/60
f 23/61/61 2/62/62 21/63/63
f 21/63/63 2/62/62 19/64/64
f 19/64/64 2/62/62 7/65/65
f 19/64/64 7/65/65 9/66/66
f 1/67/67 5/68/68 2/62/62
f 2/62/62 5/68/68 7/65/65
f 11/69/69 13/70/70 9/66/66
f 9/66/66 13/70/70 19/64/64
f 13/70/70 15/71/71 19/64/64
f 19/64/64 15/71/71 17/72/72

# 24 vertices
# 72 texture params
# 72 normals
# 44 facets

# 1 groups
