# WaveFront *.obj file (generated by Autodesk ATF)

mtllib c674a62e-5a08-48f3-98da-c757b0124885.mtl

g Body1

v 11.403541 -18.520833 0.000000
v 11.403541 -16.298333 0.000000
v 11.403541 -16.298333 5.000000
v 11.403541 -18.520833 5.000000
v 0.000000 -18.520833 0.000000
v 0.000000 -18.520833 5.000000
v 0.000000 0.000000 0.000000
v 0.000000 0.000000 5.000000
v 2.301875 0.000000 0.000000
v 2.301875 0.000000 5.000000
v 2.301875 -16.298333 0.000000
v 2.301875 -16.298333 5.000000
vt 0.000000 0.000000 0.000000
vt 0.222250 0.000000 0.000000
vt 0.000000 0.500000 0.000000
vt 0.222250 0.500000 0.000000
vt 0.000000 0.000000 0.000000
vt 1.140354 0.000000 0.000000
vt 0.000000 0.500000 0.000000
vt 1.140354 0.500000 0.000000
vt -0.000000 0.000000 0.000000
vt 1.852083 0.000000 0.000000
vt -0.000000 0.500000 0.000000
vt 1.852083 0.500000 0.000000
vt -0.000000 0.000000 0.000000
vt 0.230187 0.000000 0.000000
vt -0.000000 0.500000 0.000000
vt 0.230187 0.500000 0.000000
vt 0.000000 0.000000 0.000000
vt 1.629833 0.000000 0.000000
vt 0.000000 0.500000 0.000000
vt 1.629833 0.500000 0.000000
vt -0.000000 0.000000 0.000000
vt 0.910167 0.000000 0.000000
vt -0.000000 0.500000 0.000000
vt 0.910167 0.500000 0.000000
vt 0.570177 -0.703792 0.000000
vt -0.339990 -0.703792 0.000000
vt 0.570177 -0.926042 0.000000
vt -0.570177 -0.926042 0.000000
vt -0.570177 0.926042 0.000000
vt -0.339990 0.926042 0.000000
vt -0.570177 -0.703792 0.000000
vt -0.570177 -0.926042 0.000000
vt 0.339990 -0.703792 0.000000
vt 0.570177 -0.926042 0.000000
vt 0.570177 0.926042 0.000000
vt 0.339990 0.926042 0.000000
vn 0.100000 0.000000 0.000000
vn 0.100000 0.000000 0.000000
vn 0.100000 0.000000 0.000000
vn 0.100000 0.000000 0.000000
vn 0.000000 -0.100000 0.000000
vn 0.000000 -0.100000 0.000000
vn 0.000000 -0.100000 0.000000
vn 0.000000 -0.100000 0.000000
vn -0.100000 0.000000 0.000000
vn -0.100000 0.000000 0.000000
vn -0.100000 0.000000 0.000000
vn -0.100000 0.000000 0.000000
vn 0.000000 0.100000 0.000000
vn 0.000000 0.100000 0.000000
vn 0.000000 0.100000 0.000000
vn 0.000000 0.100000 0.000000
vn 0.100000 0.000000 0.000000
vn 0.100000 0.000000 0.000000
vn 0.100000 0.000000 0.000000
vn 0.100000 0.000000 0.000000
vn 0.000000 0.100000 0.000000
vn 0.000000 0.100000 0.000000
vn 0.000000 0.100000 0.000000
vn 0.000000 0.100000 0.000000
vn 0.000000 0.000000 0.100000
vn 0.000000 0.000000 0.100000
vn 0.000000 0.000000 0.100000
vn 0.000000 0.000000 0.100000
vn 0.000000 0.000000 0.100000
vn 0.000000 0.000000 0.100000
vn -0.000000 0.000000 -0.100000
vn -0.000000 0.000000 -0.100000
vn -0.000000 0.000000 -0.100000
vn -0.000000 0.000000 -0.100000
vn -0.000000 0.000000 -0.100000
vn -0.000000 0.000000 -0.100000
usemtl Steel_-_Satin
f 1/1/1 2/2/2 4/3/3
f 4/3/3 2/2/2 3/4/4
f 5/5/5 1/6/6 6/7/7
f 6/7/7 1/6/6 4/8/8
f 7/9/9 5/10/10 8/11/11
f 8/11/11 5/10/10 6/12/12
f 9/13/13 7/14/14 10/15/15
f 10/15/15 7/14/14 8/16/16
f 11/17/17 9/18/18 12/19/19
f 12/19/19 9/18/18 10/20/20
f 2/21/21 11/22/22 3/23/23
f 3/23/23 11/22/22 12/24/24
f 3/25/25 12/26/26 4/27/27
f 4/27/27 12/26/26 6/28/28
f 6/28/28 12/26/26 8/29/29
f 8/29/29 12/26/26 10/30/30
f 2/31/31 1/32/32 11/33/33
f 11/33/33 1/32/32 5/34/34
f 11/33/33 5/34/34 7/35/35
f 7/35/35 9/36/36 11/33/33

# 12 vertices
# 36 texture params
# 36 normals
# 20 facets

# 1 groups
