# WaveFront *.obj file (generated by Autodesk ATF)

mtllib cbcaaab1-ec1b-48c5-ada8-9ef55fc42345.mtl

g Body1

v 12.620625 -2.196042 0.000000
v 12.620625 0.000000 0.000000
v 12.620625 0.000000 5.000000
v 12.620625 -2.196042 5.000000
v 7.461250 -2.196042 0.000000
v 7.461250 -2.196042 5.000000
v 7.461250 -18.520833 0.000000
v 7.461250 -18.520833 5.000000
v 5.159375 -18.520833 0.000000
v 5.159375 -18.520833 5.000000
v 5.159375 -2.196042 0.000000
v 5.159375 -2.196042 5.000000
v 0.000000 -2.196042 0.000000
v 0.000000 -2.196042 5.000000
v 0.000000 0.000000 0.000000
v 0.000000 0.000000 5.000000
vt 0.000000 0.000000 0.000000
vt 0.219604 0.000000 0.000000
vt 0.000000 0.500000 0.000000
vt 0.219604 0.500000 0.000000
vt 0.000000 0.000000 0.000000
vt 0.515937 0.000000 0.000000
vt 0.000000 0.500000 0.000000
vt 0.515937 0.500000 0.000000
vt 0.000000 0.000000 0.000000
vt 1.632479 0.000000 0.000000
vt 0.000000 0.500000 0.000000
vt 1.632479 0.500000 0.000000
vt 0.000000 0.000000 0.000000
vt 0.230188 0.000000 0.000000
vt 0.000000 0.500000 0.000000
vt 0.230188 0.500000 0.000000
vt 0.000000 0.000000 0.000000
vt 1.632479 0.000000 0.000000
vt 0.000000 0.500000 0.000000
vt 1.632479 0.500000 0.000000
vt 0.000000 0.000000 0.000000
vt 0.515937 0.000000 0.000000
vt 0.000000 0.500000 0.000000
vt 0.515937 0.500000 0.000000
vt -0.000000 0.000000 0.000000
vt 0.219604 0.000000 0.000000
vt -0.000000 0.500000 0.000000
vt 0.219604 0.500000 0.000000
vt -0.000000 0.000000 0.000000
vt 1.262063 0.000000 0.000000
vt -0.000000 0.500000 0.000000
vt 1.262063 0.500000 0.000000
vt 0.631031 0.706437 0.000000
vt 0.631031 0.926042 0.000000
vt 0.115094 0.706437 0.000000
vt -0.631031 0.926042 0.000000
vt -0.115094 0.706437 0.000000
vt -0.631031 0.706437 0.000000
vt -0.115094 -0.926042 0.000000
vt 0.115094 -0.926042 0.000000
vt 0.631031 0.706437 0.000000
vt 0.631031 0.926042 0.000000
vt 0.115094 0.706437 0.000000
vt -0.631031 0.926042 0.000000
vt -0.115094 0.706437 0.000000
vt -0.631031 0.706437 0.000000
vt -0.115094 -0.926042 0.000000
vt 0.115094 -0.926042 0.000000
vn 0.100000 0.000000 0.000000
vn 0.100000 0.000000 0.000000
vn 0.100000 0.000000 0.000000
vn 0.100000 0.000000 0.000000
vn 0.000000 -0.100000 0.000000
vn 0.000000 -0.100000 0.000000
vn 0.000000 -0.100000 0.000000
vn 0.000000 -0.100000 0.000000
vn 0.100000 -0.000000 0.000000
vn 0.100000 -0.000000 0.000000
vn 0.100000 -0.000000 0.000000
vn 0.100000 -0.000000 0.000000
vn -0.000000 -0.100000 0.000000
vn -0.000000 -0.100000 0.000000
vn -0.000000 -0.100000 0.000000
vn -0.000000 -0.100000 0.000000
vn -0.100000 -0.000000 0.000000
vn -0.100000 -0.000000 0.000000
vn -0.100000 -0.000000 0.000000
vn -0.100000 -0.000000 0.000000
vn 0.000000 -0.100000 0.000000
vn 0.000000 -0.100000 0.000000
vn 0.000000 -0.100000 0.000000
vn 0.000000 -0.100000 0.000000
vn -0.100000 0.000000 0.000000
vn -0.100000 0.000000 0.000000
vn -0.100000 0.000000 0.000000
vn -0.100000 0.000000 0.000000
vn 0.000000 0.100000 0.000000
vn 0.000000 0.100000 0.000000
vn 0.000000 0.100000 0.000000
vn 0.000000 0.100000 0.000000
vn 0.000000 0.000000 0.100000
vn 0.000000 0.000000 0.100000
vn 0.000000 0.000000 0.100000
vn 0.000000 0.000000 0.100000
vn 0.000000 0.000000 0.100000
vn 0.000000 0.000000 0.100000
vn 0.000000 0.000000 0.100000
vn 0.000000 0.000000 0.100000
vn 0.000000 0.000000 -0.100000
vn 0.000000 0.000000 -0.100000
vn 0.000000 0.000000 -0.100000
vn 0.000000 0.000000 -0.100000
vn 0.000000 0.000000 -0.100000
vn 0.000000 0.000000 -0.100000
vn 0.000000 0.000000 -0.100000
vn 0.000000 0.000000 -0.100000
usemtl Steel_-_Satin
f 1/1/1 2/2/2 4/3/3
f 4/3/3 2/2/2 3/4/4
f 5/5/5 1/6/6 6/7/7
f 6/7/7 1/6/6 4/8/8
f 7/9/9 5/10/10 8/11/11
f 8/11/11 5/10/10 6/12/12
f 9/13/13 7/14/14 10/15/15
f 10/15/15 7/14/14 8/16/16
f 11/17/17 9/18/18 12/19/19
f 12/19/19 9/18/18 10/20/20
f 13/21/21 11/22/22 14/23/23
f 14/23/23 11/22/22 12/24/24
f 15/25/25 13/26/26 16/27/27
f 16/27/27 13/26/26 14/28/28
f 2/29/29 15/30/30 3/31/31
f 3/31/31 15/30/30 16/32/32
f 4/33/33 3/34/34 6/35/35
f 6/35/35 3/34/34 16/36/36
f 6/35/35 16/36/36 12/37/37
f 12/37/37 16/36/36 14/38/38
f 10/39/39 8/40/40 12/37/37
f 12/37/37 8/40/40 6/35/35
f 13/41/41 15/42/42 11/43/43
f 11/43/43 15/42/42 2/44/44
f 11/43/43 2/44/44 5/45/45
f 5/45/45 2/44/44 1/46/46
f 7/47/47 9/48/48 5/45/45
f 5/45/45 9/48/48 11/43/43

# 16 vertices
# 48 texture params
# 48 normals
# 28 facets

# 1 groups
