# WaveFront *.obj file (generated by Autodesk ATF)

mtllib 977edf5b-8f01-4448-9ee8-93e2ff980a42.mtl

g Body1

v 7.501731 -14.982825 0.000000
v 7.478125 -15.077061 0.000000
v 7.455810 -15.171611 0.000000
v 7.434792 -15.266459 0.000000
v 7.434792 -15.266459 5.000000
v 7.455810 -15.171611 5.000000
v 7.478125 -15.077061 5.000000
v 7.501731 -14.982825 5.000000
v 7.822141 -13.853583 0.000000
v 7.634751 -14.493214 0.000000
v 7.634751 -14.493214 5.000000
v 7.822141 -13.853583 5.000000
v 7.963958 -13.387916 0.000000
v 7.916347 -13.543035 0.000000
v 7.869074 -13.698258 0.000000
v 7.869074 -13.698258 5.000000
v 7.916347 -13.543035 5.000000
v 7.963958 -13.387916 5.000000
v 12.250208 0.000000 0.000000
v 12.250208 0.000000 5.000000
v 14.710833 0.000000 0.000000
v 14.710833 0.000000 5.000000
v 8.387292 -18.520833 0.000000
v 8.387292 -18.520833 5.000000
v 6.350000 -18.520833 0.000000
v 6.350000 -18.520833 5.000000
v 0.000000 0.000000 0.000000
v 0.000000 0.000000 5.000000
v 2.460625 0.000000 0.000000
v 2.460625 0.000000 5.000000
v 6.879167 -13.387916 0.000000
v 6.879167 -13.387916 5.000000
v 7.403306 -15.160625 0.000000
v 7.326594 -14.902094 0.000000
v 7.213666 -14.520466 0.000000
v 7.064524 -14.015740 0.000000
v 7.064524 -14.015740 5.000000
v 7.213666 -14.520466 5.000000
v 7.326594 -14.902094 5.000000
v 7.403306 -15.160625 5.000000
v 7.424271 -15.231188 0.000000
v 7.413776 -15.195910 0.000000
v 7.413776 -15.195910 5.000000
v 7.424271 -15.231188 5.000000
vt -0.500000 -0.029145 0.000000
vt -0.000000 -0.029145 0.000000
vt -0.500000 -0.019430 0.000000
vt -0.000000 -0.019430 0.000000
vt -0.500000 -0.009715 0.000000
vt -0.000000 -0.009715 0.000000
vt -0.500000 -0.000000 0.000000
vt -0.000000 -0.000000 0.000000
vt -0.117379 0.000000 0.000000
vt -0.058689 0.000000 0.000000
vt -0.117379 0.500000 0.000000
vt -0.058689 0.500000 0.000000
vt 0.000000 0.000000 0.000000
vt 0.000000 0.500000 0.000000
vt -0.500000 -0.048678 0.000000
vt -0.000000 -0.048678 0.000000
vt -0.500000 -0.032452 0.000000
vt -0.000000 -0.032452 0.000000
vt -0.500000 -0.016226 0.000000
vt -0.000000 -0.016226 0.000000
vt -0.500000 0.000000 0.000000
vt -0.000000 0.000000 0.000000
vt -0.000000 0.000000 0.000000
vt 1.405732 0.000000 0.000000
vt -0.000000 0.500000 0.000000
vt 1.405732 0.500000 0.000000
vt -0.000000 0.000000 0.000000
vt 0.246062 0.000000 0.000000
vt -0.000000 0.500000 0.000000
vt 0.246062 0.500000 0.000000
vt -0.000000 0.000000 0.000000
vt 1.957060 0.000000 0.000000
vt -0.000000 0.500000 0.000000
vt 1.957060 0.500000 0.000000
vt 0.000000 0.000000 0.000000
vt 0.203729 0.000000 0.000000
vt 0.000000 0.500000 0.000000
vt 0.203729 0.500000 0.000000
vt 0.000000 0.000000 0.000000
vt 1.957917 0.000000 0.000000
vt 0.000000 0.500000 0.000000
vt 1.957917 0.500000 0.000000
vt -0.000000 0.000000 0.000000
vt 0.246063 0.000000 0.000000
vt 0.000000 0.500000 0.000000
vt 0.246063 0.500000 0.000000
vt 0.000000 0.000000 0.000000
vt 1.409822 0.000000 0.000000
vt 0.000000 0.500000 0.000000
vt 1.409822 0.500000 0.000000
vt -0.184867 0.000000 0.000000
vt -0.138651 0.000000 0.000000
vt -0.184867 0.500000 0.000000
vt -0.138651 0.500000 0.000000
vt -0.092434 0.000000 0.000000
vt -0.092434 0.500000 0.000000
vt -0.046217 0.000000 0.000000
vt -0.046217 0.500000 0.000000
vt 0.000000 0.000000 0.000000
vt 0.000000 0.500000 0.000000
vt 0.500000 0.000000 0.000000
vt 0.000000 0.000000 0.000000
vt 0.500000 -0.003681 0.000000
vt 0.000000 -0.003681 0.000000
vt 0.500000 -0.007361 0.000000
vt 0.000000 -0.007361 0.000000
vt 0.500000 -0.011042 0.000000
vt 0.000000 -0.011042 0.000000
vt 0.006885 -0.597077 0.000000
vt -0.100542 -0.926042 0.000000
vt 0.007938 -0.600604 0.000000
vt 0.103188 -0.926042 0.000000
vt 0.010039 -0.591119 0.000000
vt 0.012271 -0.581664 0.000000
vt 0.014631 -0.572241 0.000000
vt 0.027933 -0.523280 0.000000
vt 0.046672 -0.459317 0.000000
vt 0.051366 -0.443784 0.000000
vt 0.056093 -0.428262 0.000000
vt 0.060854 -0.412750 0.000000
vt 0.735542 0.926042 0.000000
vt 0.489479 0.926042 0.000000
vt 0.005836 -0.593549 0.000000
vt 0.004789 -0.590021 0.000000
vt -0.002882 -0.564168 0.000000
vt -0.014175 -0.526005 0.000000
vt -0.029089 -0.475532 0.000000
vt -0.047625 -0.412750 0.000000
vt -0.489479 0.926042 0.000000
vt -0.735542 0.926042 0.000000
vt 0.002882 -0.564168 0.000000
vt -0.004789 -0.590021 0.000000
vt 0.100542 -0.926042 0.000000
vt -0.005836 -0.593549 0.000000
vt -0.006885 -0.597077 0.000000
vt -0.007938 -0.600604 0.000000
vt -0.103188 -0.926042 0.000000
vt -0.010039 -0.591119 0.000000
vt -0.012271 -0.581664 0.000000
vt -0.014631 -0.572241 0.000000
vt -0.027933 -0.523280 0.000000
vt -0.046672 -0.459317 0.000000
vt -0.051366 -0.443784 0.000000
vt -0.056093 -0.428262 0.000000
vt -0.060854 -0.412750 0.000000
vt -0.489479 0.926042 0.000000
vt -0.735542 0.926042 0.000000
vt 0.735542 0.926042 0.000000
vt 0.047625 -0.412750 0.000000
vt 0.029089 -0.475532 0.000000
vt 0.014175 -0.526005 0.000000
vt 0.489479 0.926042 0.000000
vn -0.096834 0.024963 -0.000000
vn -0.096834 0.024963 -0.000000
vn -0.097167 0.023635 -0.000000
vn -0.097167 0.023635 -0.000000
vn -0.097481 0.022303 -0.000000
vn -0.097481 0.022303 -0.000000
vn -0.097777 0.020967 -0.000000
vn -0.097777 0.020967 -0.000000
vn -0.095776 0.028758 0.000000
vn -0.096202 0.027296 0.000000
vn -0.095776 0.028758 0.000000
vn -0.096202 0.027296 0.000000
vn -0.096893 0.024733 0.000000
vn -0.096893 0.024733 0.000000
vn -0.095566 0.029447 -0.000000
vn -0.095566 0.029447 -0.000000
vn -0.095630 0.029238 -0.000000
vn -0.095630 0.029238 -0.000000
vn -0.095694 0.029029 -0.000000
vn -0.095694 0.029029 -0.000000
vn -0.095757 0.028819 -0.000000
vn -0.095757 0.028819 -0.000000
vn -0.095238 0.030491 0.000000
vn -0.095238 0.030491 0.000000
vn -0.095238 0.030491 0.000000
vn -0.095238 0.030491 0.000000
vn 0.000000 0.100000 0.000000
vn 0.000000 0.100000 0.000000
vn 0.000000 0.100000 0.000000
vn 0.000000 0.100000 0.000000
vn 0.094636 -0.032311 0.000000
vn 0.094636 -0.032311 0.000000
vn 0.094636 -0.032311 0.000000
vn 0.094636 -0.032311 0.000000
vn 0.000000 -0.100000 0.000000
vn 0.000000 -0.100000 0.000000
vn 0.000000 -0.100000 0.000000
vn 0.000000 -0.100000 0.000000
vn -0.094595 -0.032432 0.000000
vn -0.094595 -0.032432 0.000000
vn -0.094595 -0.032432 0.000000
vn -0.094595 -0.032432 0.000000
vn 0.000000 0.100000 0.000000
vn 0.000000 0.100000 0.000000
vn 0.000000 0.100000 0.000000
vn 0.000000 0.100000 0.000000
vn 0.094962 0.031341 0.000000
vn 0.094962 0.031341 0.000000
vn 0.094962 0.031341 0.000000
vn 0.094962 0.031341 0.000000
vn 0.095848 0.028516 0.000000
vn 0.095881 0.028404 0.000000
vn 0.095848 0.028516 0.000000
vn 0.095881 0.028404 0.000000
vn 0.095896 0.028354 0.000000
vn 0.095896 0.028354 0.000000
vn 0.095904 0.028325 0.000000
vn 0.095904 0.028325 0.000000
vn 0.095910 0.028307 0.000000
vn 0.095910 0.028307 0.000000
vn 0.095817 0.028619 0.000000
vn 0.095817 0.028619 0.000000
vn 0.095838 0.028549 0.000000
vn 0.095838 0.028549 0.000000
vn 0.095859 0.028480 0.000000
vn 0.095859 0.028480 0.000000
vn 0.095879 0.028411 0.000000
vn 0.095879 0.028411 0.000000
vn 0.000000 0.000000 0.100000
vn 0.000000 0.000000 0.100000
vn 0.000000 0.000000 0.100000
vn 0.000000 0.000000 0.100000
vn 0.000000 0.000000 0.100000
vn 0.000000 0.000000 0.100000
vn 0.000000 0.000000 0.100000
vn 0.000000 0.000000 0.100000
vn 0.000000 0.000000 0.100000
vn 0.000000 0.000000 0.100000
vn 0.000000 0.000000 0.100000
vn 0.000000 0.000000 0.100000
vn 0.000000 0.000000 0.100000
vn 0.000000 0.000000 0.100000
vn 0.000000 0.000000 0.100000
vn 0.000000 0.000000 0.100000
vn 0.000000 0.000000 0.100000
vn 0.000000 0.000000 0.100000
vn 0.000000 0.000000 0.100000
vn 0.000000 0.000000 0.100000
vn 0.000000 0.000000 0.100000
vn 0.000000 0.000000 0.100000
vn -0.000000 0.000000 -0.100000
vn -0.000000 0.000000 -0.100000
vn -0.000000 0.000000 -0.100000
vn -0.000000 0.000000 -0.100000
vn -0.000000 0.000000 -0.100000
vn -0.000000 0.000000 -0.100000
vn -0.000000 0.000000 -0.100000
vn -0.000000 0.000000 -0.100000
vn -0.000000 0.000000 -0.100000
vn -0.000000 0.000000 -0.100000
vn -0.000000 0.000000 -0.100000
vn -0.000000 0.000000 -0.100000
vn -0.000000 0.000000 -0.100000
vn -0.000000 0.000000 -0.100000
vn -0.000000 0.000000 -0.100000
vn -0.000000 0.000000 -0.100000
vn -0.000000 0.000000 -0.100000
vn -0.000000 0.000000 -0.100000
vn -0.000000 0.000000 -0.100000
vn -0.000000 0.000000 -0.100000
vn -0.000000 0.000000 -0.100000
vn -0.000000 0.000000 -0.100000
usemtl Steel_-_Satin
f 8/1/1 1/2/2 7/3/3
f 7/3/3 1/2/2 2/4/4
f 7/3/3 2/4/4 6/5/5
f 6/5/5 2/4/4 3/6/6
f 6/5/5 3/6/6 5/7/7
f 5/7/7 3/6/6 4/8/8
f 9/9/9 10/10/10 12/11/11
f 12/11/11 10/10/10 11/12/12
f 11/12/12 10/10/10 1/13/13
f 11/12/12 1/13/13 8/14/14
f 18/15/15 13/16/16 17/17/17
f 17/17/17 13/16/16 14/18/18
f 17/17/17 14/18/18 16/19/19
f 16/19/19 14/18/18 15/20/20
f 16/19/19 15/20/20 12/21/21
f 12/21/21 15/20/20 9/22/22
f 19/23/23 13/24/24 20/25/25
f 20/25/25 13/24/24 18/26/26
f 21/27/27 19/28/28 22/29/29
f 22/29/29 19/28/28 20/30/30
f 23/31/31 21/32/32 24/33/33
f 24/33/33 21/32/32 22/34/34
f 25/35/35 23/36/36 26/37/37
f 26/37/37 23/36/36 24/38/38
f 27/39/39 25/40/40 28/41/41
f 28/41/41 25/40/40 26/42/42
f 29/43/43 27/44/44 30/45/45
f 30/45/45 27/44/44 28/46/46
f 31/47/47 29/48/48 32/49/49
f 32/49/49 29/48/48 30/50/50
f 33/51/51 34/52/52 40/53/53
f 40/53/53 34/52/52 39/54/54
f 39/54/54 34/52/52 35/55/55
f 39/54/54 35/55/55 38/56/56
f 38/56/56 35/55/55 36/57/57
f 38/56/56 36/57/57 37/58/58
f 37/58/58 36/57/57 31/59/59
f 37/58/58 31/59/59 32/60/60
f 5/61/61 4/62/62 44/63/63
f 44/63/63 4/62/62 41/64/64
f 44/63/63 41/64/64 43/65/65
f 43/65/65 41/64/64 42/66/66
f 43/65/65 42/66/66 40/67/67
f 40/67/67 42/66/66 33/68/68
f 44/69/69 26/70/70 5/71/71
f 5/71/71 26/70/70 24/72/72
f 5/71/71 24/72/72 6/73/73
f 6/73/73 24/72/72 7/74/74
f 7/74/74 24/72/72 8/75/75
f 8/75/75 24/72/72 11/76/76
f 11/76/76 24/72/72 12/77/77
f 12/77/77 24/72/72 16/78/78
f 16/78/78 24/72/72 17/79/79
f 17/79/79 24/72/72 18/80/80
f 18/80/80 24/72/72 22/81/81
f 18/80/80 22/81/81 20/82/82
f 44/69/69 43/83/83 26/70/70
f 26/70/70 43/83/83 40/84/84
f 26/70/70 40/84/84 39/85/85
f 39/85/85 38/86/86 26/70/70
f 26/70/70 38/86/86 37/87/87
f 26/70/70 37/87/87 32/88/88
f 30/89/89 28/90/90 32/88/88
f 32/88/88 28/90/90 26/70/70
f 34/91/91 33/92/92 25/93/93
f 25/93/93 33/92/92 42/94/94
f 25/93/93 42/94/94 41/95/95
f 41/95/95 4/96/96 25/93/93
f 25/93/93 4/96/96 23/97/97
f 23/97/97 4/96/96 3/98/98
f 23/97/97 3/98/98 2/99/99
f 2/99/99 1/100/100 23/97/97
f 23/97/97 1/100/100 10/101/101
f 23/97/97 10/101/101 9/102/102
f 9/102/102 15/103/103 23/97/97
f 23/97/97 15/103/103 14/104/104
f 23/97/97 14/104/104 13/105/105
f 19/106/106 21/107/107 13/105/105
f 13/105/105 21/107/107 23/97/97
f 27/108/108 31/109/109 25/93/93
f 25/93/93 31/109/109 36/110/110
f 25/93/93 36/110/110 35/111/111
f 27/108/108 29/112/112 31/109/109
f 35/111/111 34/91/91 25/93/93

# 44 vertices
# 112 texture params
# 112 normals
# 84 facets

# 1 groups
