# WaveFront *.obj file (generated by Autodesk ATF)

mtllib 6a5e0ab2-6d08-4cb6-8cb3-0dce8cbc36ed.mtl

g Body1

v 5.662083 -18.520833 0.000000
v 9.233959 -5.873750 0.000000
v 9.233959 -5.873750 5.000000
v 5.662083 -18.520833 5.000000
v 3.783542 -18.520833 0.000000
v 3.783542 -18.520833 5.000000
v 0.000000 0.000000 0.000000
v 0.000000 0.000000 5.000000
v 2.407708 0.000000 0.000000
v 2.407708 0.000000 5.000000
v 4.683125 -12.065000 0.000000
v 4.683125 -12.065000 5.000000
v 5.027083 -14.049375 0.000000
v 5.022440 -14.014832 0.000000
v 4.884440 -13.134886 0.000000
v 4.884440 -13.134886 5.000000
v 5.022440 -14.014832 5.000000
v 5.027083 -14.049375 5.000000
v 5.035021 -14.013127 0.000000
v 5.032012 -14.025128 0.000000
v 5.029366 -14.037214 0.000000
v 5.029366 -14.037214 5.000000
v 5.032012 -14.025128 5.000000
v 5.035021 -14.013127 5.000000
v 5.529792 -12.091459 0.000000
v 5.333967 -12.845372 0.000000
v 5.186230 -13.416955 0.000000
v 5.086582 -13.806207 0.000000
v 5.086582 -13.806207 5.000000
v 5.186230 -13.416955 5.000000
v 5.333967 -12.845372 5.000000
v 5.529792 -12.091459 5.000000
v 8.810625 0.000000 0.000000
v 8.810625 0.000000 5.000000
v 10.636250 0.000000 0.000000
v 10.636250 0.000000 5.000000
v 13.943542 -12.065000 0.000000
v 13.943542 -12.065000 5.000000
v 14.366875 -13.864167 0.000000
v 14.300729 -13.523516 0.000000
v 14.208125 -13.110104 0.000000
v 14.089063 -12.623932 0.000000
v 14.089063 -12.623932 5.000000
v 14.208125 -13.110104 5.000000
v 14.300729 -13.523516 5.000000
v 14.366875 -13.864167 5.000000
v 14.710833 -12.038542 0.000000
v 14.600039 -12.579284 0.000000
v 14.505781 -13.063802 0.000000
v 14.428060 -13.492097 0.000000
v 14.428060 -13.492097 5.000000
v 14.505781 -13.063802 5.000000
v 14.600039 -12.579284 5.000000
v 14.710833 -12.038542 5.000000
v 17.224375 0.000000 0.000000
v 17.224375 0.000000 5.000000
v 19.579167 0.000000 0.000000
v 19.579167 0.000000 5.000000
v 15.557500 -18.520833 0.000000
v 15.557500 -18.520833 5.000000
v 13.731875 -18.520833 0.000000
v 13.731875 -18.520833 5.000000
v 10.160000 -5.873750 0.000000
v 10.160000 -5.873750 5.000000
v 10.022417 -5.366279 0.000000
v 10.068109 -5.535482 0.000000
v 10.113970 -5.704639 0.000000
v 10.113970 -5.704639 5.000000
v 10.068109 -5.535482 5.000000
v 10.022417 -5.366279 5.000000
v 9.683750 -4.048125 0.000000
v 9.729126 -4.243321 0.000000
v 9.800696 -4.528079 0.000000
v 9.898460 -4.902398 0.000000
v 9.898460 -4.902398 5.000000
v 9.800696 -4.528079 5.000000
v 9.729126 -4.243321 5.000000
v 9.683750 -4.048125 5.000000
v 9.582944 -4.533371 0.000000
v 9.618687 -4.372072 0.000000
v 9.652291 -4.210314 0.000000
v 9.652291 -4.210314 5.000000
v 9.618687 -4.372072 5.000000
v 9.582944 -4.533371 5.000000
v 9.430345 -5.156729 0.000000
v 9.430345 -5.156729 5.000000
vt 0.000000 0.000000 0.000000
vt 1.314180 0.000000 0.000000
vt 0.000000 0.500000 0.000000
vt 1.314180 0.500000 0.000000
vt 0.000000 0.000000 0.000000
vt 0.187854 0.000000 0.000000
vt 0.000000 0.500000 0.000000
vt 0.187854 0.500000 0.000000
vt 0.000000 0.000000 0.000000
vt 1.890335 0.000000 0.000000
vt 0.000000 0.500000 0.000000
vt 1.890335 0.500000 0.000000
vt -0.000000 0.000000 0.000000
vt 0.240771 0.000000 0.000000
vt -0.000000 0.500000 0.000000
vt 0.240771 0.500000 0.000000
vt 0.000000 0.000000 0.000000
vt 1.227769 0.000000 0.000000
vt 0.000000 0.500000 0.000000
vt 1.227769 0.500000 0.000000
vt -0.201401 0.000000 0.000000
vt -0.197042 0.000000 0.000000
vt -0.201401 0.500000 0.000000
vt -0.197042 0.500000 0.000000
vt -0.098521 0.000000 0.000000
vt -0.098521 0.500000 0.000000
vt 0.000000 0.000000 0.000000
vt 0.000000 0.500000 0.000000
vt -0.500000 -0.003712 0.000000
vt -0.000000 -0.003712 0.000000
vt -0.500000 -0.002475 0.000000
vt -0.000000 -0.002475 0.000000
vt -0.500000 -0.001237 0.000000
vt -0.000000 -0.001237 0.000000
vt -0.500000 0.000000 0.000000
vt -0.000000 0.000000 0.000000
vt -0.198419 0.000000 0.000000
vt -0.148814 0.000000 0.000000
vt -0.198419 0.500000 0.000000
vt -0.148814 0.500000 0.000000
vt -0.099210 0.000000 0.000000
vt -0.099210 0.500000 0.000000
vt -0.049605 0.000000 0.000000
vt -0.049605 0.500000 0.000000
vt 0.000000 0.000000 0.000000
vt 0.000000 0.500000 0.000000
vt -0.000000 0.000000 0.000000
vt 1.252866 0.000000 0.000000
vt -0.000000 0.500000 0.000000
vt 1.252866 0.500000 0.000000
vt -0.000000 0.000000 0.000000
vt 0.182563 0.000000 0.000000
vt -0.000000 0.500000 0.000000
vt 0.182563 0.500000 0.000000
vt -0.000000 0.000000 0.000000
vt 1.251009 0.000000 0.000000
vt -0.000000 0.500000 0.000000
vt 1.251009 0.500000 0.000000
vt -0.184836 0.000000 0.000000
vt -0.138627 0.000000 0.000000
vt -0.184836 0.500000 0.000000
vt -0.138627 0.500000 0.000000
vt -0.092418 0.000000 0.000000
vt -0.092418 0.500000 0.000000
vt -0.046209 0.000000 0.000000
vt -0.046209 0.500000 0.000000
vt 0.000000 0.000000 0.000000
vt 0.000000 0.500000 0.000000
vt -0.185770 0.000000 0.000000
vt -0.139327 0.000000 0.000000
vt -0.185770 0.500000 0.000000
vt -0.139327 0.500000 0.000000
vt -0.092885 0.000000 0.000000
vt -0.092885 0.500000 0.000000
vt -0.046442 0.000000 0.000000
vt -0.046442 0.500000 0.000000
vt 0.000000 0.000000 0.000000
vt 0.000000 0.500000 0.000000
vt -0.000000 0.000000 0.000000
vt 1.229815 0.000000 0.000000
vt -0.000000 0.500000 0.000000
vt 1.229815 0.500000 0.000000
vt -0.000000 0.000000 0.000000
vt 0.235479 0.000000 0.000000
vt -0.000000 0.500000 0.000000
vt 0.235479 0.500000 0.000000
vt 0.000000 0.000000 0.000000
vt 1.895244 0.000000 0.000000
vt 0.000000 0.500000 0.000000
vt 1.895244 0.500000 0.000000
vt 0.000000 0.000000 0.000000
vt 0.182562 0.000000 0.000000
vt 0.000000 0.500000 0.000000
vt 0.182562 0.500000 0.000000
vt -0.000000 0.000000 0.000000
vt 1.314180 0.000000 0.000000
vt -0.000000 0.500000 0.000000
vt 1.314180 0.500000 0.000000
vt -0.500000 -0.052579 0.000000
vt -0.000000 -0.052579 0.000000
vt -0.500000 -0.035053 0.000000
vt -0.000000 -0.035053 0.000000
vt -0.500000 -0.017526 0.000000
vt -0.000000 -0.017526 0.000000
vt -0.500000 0.000000 0.000000
vt -0.000000 0.000000 0.000000
vt -0.136104 0.000000 0.000000
vt -0.102078 0.000000 0.000000
vt -0.136104 0.500000 0.000000
vt -0.102078 0.500000 0.000000
vt -0.068052 0.000000 0.000000
vt -0.068052 0.500000 0.000000
vt -0.034026 0.000000 0.000000
vt -0.034026 0.500000 0.000000
vt 0.000000 0.000000 0.000000
vt 0.000000 0.500000 0.000000
vt -0.500000 -0.049564 0.000000
vt -0.000000 -0.049564 0.000000
vt -0.500000 -0.033043 0.000000
vt -0.000000 -0.033043 0.000000
vt -0.500000 -0.016521 0.000000
vt -0.000000 -0.016521 0.000000
vt -0.500000 0.000000 0.000000
vt -0.000000 0.000000 0.000000
vt -0.138505 0.000000 0.000000
vt -0.069252 0.000000 0.000000
vt -0.138505 0.500000 0.000000
vt -0.069252 0.500000 0.000000
vt 0.000000 0.000000 0.000000
vt 0.000000 0.500000 0.000000
vt -0.035924 0.410369 0.000000
vt -0.097896 0.926042 0.000000
vt -0.055562 0.338667 0.000000
vt -0.425979 -0.283104 0.000000
vt -0.412750 -0.926042 0.000000
vt -0.445562 -0.358496 0.000000
vt -0.460335 -0.415654 0.000000
vt -0.020664 0.472705 0.000000
vt -0.017090 0.488834 0.000000
vt -0.013729 0.505010 0.000000
vt -0.010583 0.521229 0.000000
vt 0.084667 0.926042 0.000000
vt -0.006046 0.501710 0.000000
vt 0.001111 0.473234 0.000000
vt 0.010888 0.435802 0.000000
vt 0.023283 0.389414 0.000000
vt 0.027853 0.372493 0.000000
vt 0.032439 0.355578 0.000000
vt 0.037042 0.338667 0.000000
vt 0.415396 -0.280458 0.000000
vt 0.394229 -0.926042 0.000000
vt 0.429948 -0.336352 0.000000
vt 0.441854 -0.384969 0.000000
vt 0.451115 -0.426310 0.000000
vt 0.457729 -0.460375 0.000000
vt 0.576792 -0.926042 0.000000
vt 0.463848 -0.423168 0.000000
vt 0.471620 -0.380339 0.000000
vt 0.481046 -0.331887 0.000000
vt 0.492125 -0.277812 0.000000
vt 0.978958 0.926042 0.000000
vt 0.743479 0.926042 0.000000
vt -0.470300 -0.454579 0.000000
vt -0.476250 -0.478896 0.000000
vt -0.600604 -0.926042 0.000000
vt -0.476714 -0.475442 0.000000
vt -0.490514 -0.387447 0.000000
vt -0.475456 -0.475271 0.000000
vt -0.476022 -0.477680 0.000000
vt -0.475757 -0.476471 0.000000
vt -0.510646 -0.280458 0.000000
vt -0.978958 0.926042 0.000000
vt -0.738187 0.926042 0.000000
vt 0.017090 0.488834 0.000000
vt 0.020664 0.472705 0.000000
vt 0.097896 0.926042 0.000000
vt 0.035924 0.410369 0.000000
vt 0.055562 0.338667 0.000000
vt 0.425979 -0.283104 0.000000
vt 0.412750 -0.926042 0.000000
vt 0.445562 -0.358496 0.000000
vt 0.460335 -0.415654 0.000000
vt 0.470300 -0.454579 0.000000
vt 0.476250 -0.478896 0.000000
vt 0.475456 -0.475271 0.000000
vt 0.476022 -0.477680 0.000000
vt 0.475757 -0.476471 0.000000
vt 0.600604 -0.926042 0.000000
vt 0.476714 -0.475442 0.000000
vt 0.490514 -0.387447 0.000000
vt 0.510646 -0.280458 0.000000
vt 0.978958 0.926042 0.000000
vt 0.738187 0.926042 0.000000
vt -0.084667 0.926042 0.000000
vt 0.010583 0.521229 0.000000
vt 0.013729 0.505010 0.000000
vt -0.415396 -0.280458 0.000000
vt -0.037042 0.338667 0.000000
vt -0.032439 0.355578 0.000000
vt -0.027853 0.372493 0.000000
vt -0.394229 -0.926042 0.000000
vt -0.429948 -0.336352 0.000000
vt -0.441854 -0.384969 0.000000
vt -0.451115 -0.426310 0.000000
vt -0.457729 -0.460375 0.000000
vt -0.576792 -0.926042 0.000000
vt -0.463848 -0.423168 0.000000
vt -0.471620 -0.380339 0.000000
vt -0.481046 -0.331887 0.000000
vt -0.492125 -0.277812 0.000000
vt -0.978958 0.926042 0.000000
vt -0.743479 0.926042 0.000000
vt -0.023283 0.389414 0.000000
vt -0.010888 0.435802 0.000000
vt -0.001111 0.473234 0.000000
vt 0.006046 0.501710 0.000000
vn 0.096236 -0.027179 0.000000
vn 0.096236 -0.027179 0.000000
vn 0.096236 -0.027179 0.000000
vn 0.096236 -0.027179 0.000000
vn 0.000000 -0.100000 0.000000
vn 0.000000 -0.100000 0.000000
vn 0.000000 -0.100000 0.000000
vn 0.000000 -0.100000 0.000000
vn -0.097976 -0.020015 0.000000
vn -0.097976 -0.020015 0.000000
vn -0.097976 -0.020015 0.000000
vn -0.097976 -0.020015 0.000000
vn 0.000000 0.100000 0.000000
vn 0.000000 0.100000 0.000000
vn 0.000000 0.100000 0.000000
vn 0.000000 0.100000 0.000000
vn 0.098268 0.018533 0.000000
vn 0.098268 0.018533 0.000000
vn 0.098268 0.018533 0.000000
vn 0.098268 0.018533 0.000000
vn 0.099123 0.013216 0.000000
vn 0.099095 0.013425 0.000000
vn 0.099123 0.013216 0.000000
vn 0.099095 0.013425 0.000000
vn 0.098519 0.017145 0.000000
vn 0.098519 0.017145 0.000000
vn 0.098058 0.019612 0.000000
vn 0.098058 0.019612 0.000000
vn -0.096622 0.025772 -0.000000
vn -0.096622 0.025772 -0.000000
vn -0.097353 0.022857 -0.000000
vn -0.097353 0.022857 -0.000000
vn -0.097996 0.019922 -0.000000
vn -0.097996 0.019922 -0.000000
vn -0.098550 0.016968 -0.000000
vn -0.098550 0.016968 -0.000000
vn -0.096778 0.025179 0.000000
vn -0.096801 0.025090 0.000000
vn -0.096778 0.025179 0.000000
vn -0.096801 0.025090 0.000000
vn -0.096842 0.024934 0.000000
vn -0.096842 0.024934 0.000000
vn -0.096931 0.024585 0.000000
vn -0.096931 0.024585 0.000000
vn -0.097289 0.023127 0.000000
vn -0.097289 0.023127 0.000000
vn -0.096510 0.026187 0.000000
vn -0.096510 0.026187 0.000000
vn -0.096510 0.026187 0.000000
vn -0.096510 0.026187 0.000000
vn 0.000000 0.100000 0.000000
vn 0.000000 0.100000 0.000000
vn 0.000000 0.100000 0.000000
vn 0.000000 0.100000 0.000000
vn 0.096442 0.026437 0.000000
vn 0.096442 0.026437 0.000000
vn 0.096442 0.026437 0.000000
vn 0.096442 0.026437 0.000000
vn 0.098521 0.017134 0.000000
vn 0.097855 0.020601 0.000000
vn 0.098521 0.017134 0.000000
vn 0.097855 0.020601 0.000000
vn 0.097342 0.022904 0.000000
vn 0.097342 0.022904 0.000000
vn 0.096942 0.024542 0.000000
vn 0.096942 0.024542 0.000000
vn 0.096623 0.025766 0.000000
vn 0.096623 0.025766 0.000000
vn -0.097879 0.020486 0.000000
vn -0.098058 0.019612 0.000000
vn -0.097879 0.020486 0.000000
vn -0.098058 0.019612 0.000000
vn -0.098271 0.018515 0.000000
vn -0.098271 0.018515 0.000000
vn -0.098527 0.017100 0.000000
vn -0.098527 0.017100 0.000000
vn -0.098837 0.015206 0.000000
vn -0.098837 0.015206 0.000000
vn -0.097889 0.020438 0.000000
vn -0.097889 0.020438 0.000000
vn -0.097889 0.020438 0.000000
vn -0.097889 0.020438 0.000000
vn 0.000000 0.100000 0.000000
vn 0.000000 0.100000 0.000000
vn 0.000000 0.100000 0.000000
vn 0.000000 0.100000 0.000000
vn 0.097723 -0.021220 0.000000
vn 0.097723 -0.021220 0.000000
vn 0.097723 -0.021220 0.000000
vn 0.097723 -0.021220 0.000000
vn 0.000000 -0.100000 0.000000
vn 0.000000 -0.100000 0.000000
vn 0.000000 -0.100000 0.000000
vn 0.000000 -0.100000 0.000000
vn -0.096236 -0.027179 0.000000
vn -0.096236 -0.027179 0.000000
vn -0.096236 -0.027179 0.000000
vn -0.096236 -0.027179 0.000000
vn -0.096555 -0.026022 0.000000
vn -0.096555 -0.026022 0.000000
vn -0.096529 -0.026119 0.000000
vn -0.096529 -0.026119 0.000000
vn -0.096503 -0.026215 0.000000
vn -0.096503 -0.026215 0.000000
vn -0.096476 -0.026312 0.000000
vn -0.096476 -0.026312 0.000000
vn -0.097774 -0.020983 0.000000
vn -0.097157 -0.023674 0.000000
vn -0.097774 -0.020983 0.000000
vn -0.097157 -0.023674 0.000000
vn -0.096854 -0.024884 0.000000
vn -0.096854 -0.024884 0.000000
vn -0.096675 -0.025572 0.000000
vn -0.096675 -0.025572 0.000000
vn -0.096556 -0.026016 0.000000
vn -0.096556 -0.026016 0.000000
vn 0.097486 -0.022281 0.000000
vn 0.097486 -0.022281 0.000000
vn 0.097773 -0.020988 0.000000
vn 0.097773 -0.020988 0.000000
vn 0.098042 -0.019691 0.000000
vn 0.098042 -0.019691 0.000000
vn 0.098294 -0.018391 0.000000
vn 0.098294 -0.018391 0.000000
vn 0.096151 -0.027476 0.000000
vn 0.096774 -0.025196 0.000000
vn 0.096151 -0.027476 0.000000
vn 0.096774 -0.025196 0.000000
vn 0.097525 -0.022110 0.000000
vn 0.097525 -0.022110 0.000000
vn 0.000000 0.000000 0.100000
vn 0.000000 0.000000 0.100000
vn 0.000000 0.000000 0.100000
vn 0.000000 0.000000 0.100000
vn 0.000000 0.000000 0.100000
vn 0.000000 0.000000 0.100000
vn 0.000000 0.000000 0.100000
vn 0.000000 0.000000 0.100000
vn 0.000000 0.000000 0.100000
vn 0.000000 0.000000 0.100000
vn 0.000000 0.000000 0.100000
vn 0.000000 0.000000 0.100000
vn 0.000000 0.000000 0.100000
vn 0.000000 0.000000 0.100000
vn 0.000000 0.000000 0.100000
vn 0.000000 0.000000 0.100000
vn 0.000000 0.000000 0.100000
vn 0.000000 0.000000 0.100000
vn 0.000000 0.000000 0.100000
vn 0.000000 0.000000 0.100000
vn 0.000000 0.000000 0.100000
vn 0.000000 0.000000 0.100000
vn 0.000000 0.000000 0.100000
vn 0.000000 0.000000 0.100000
vn 0.000000 0.000000 0.100000
vn 0.000000 0.000000 0.100000
vn 0.000000 0.000000 0.100000
vn 0.000000 0.000000 0.100000
vn 0.000000 0.000000 0.100000
vn 0.000000 0.000000 0.100000
vn 0.000000 0.000000 0.100000
vn 0.000000 0.000000 0.100000
vn 0.000000 0.000000 0.100000
vn 0.000000 0.000000 0.100000
vn 0.000000 0.000000 0.100000
vn 0.000000 0.000000 0.100000
vn 0.000000 0.000000 0.100000
vn 0.000000 0.000000 0.100000
vn 0.000000 0.000000 0.100000
vn 0.000000 0.000000 0.100000
vn 0.000000 0.000000 0.100000
vn 0.000000 0.000000 0.100000
vn 0.000000 0.000000 0.100000
vn -0.000000 0.000000 -0.100000
vn -0.000000 0.000000 -0.100000
vn -0.000000 0.000000 -0.100000
vn -0.000000 0.000000 -0.100000
vn -0.000000 0.000000 -0.100000
vn -0.000000 0.000000 -0.100000
vn -0.000000 0.000000 -0.100000
vn -0.000000 0.000000 -0.100000
vn -0.000000 0.000000 -0.100000
vn -0.000000 0.000000 -0.100000
vn -0.000000 0.000000 -0.100000
vn -0.000000 0.000000 -0.100000
vn -0.000000 0.000000 -0.100000
vn -0.000000 0.000000 -0.100000
vn -0.000000 0.000000 -0.100000
vn -0.000000 0.000000 -0.100000
vn -0.000000 0.000000 -0.100000
vn -0.000000 0.000000 -0.100000
vn -0.000000 0.000000 -0.100000
vn -0.000000 0.000000 -0.100000
vn -0.000000 0.000000 -0.100000
vn -0.000000 0.000000 -0.100000
vn -0.000000 0.000000 -0.100000
vn -0.000000 0.000000 -0.100000
vn -0.000000 0.000000 -0.100000
vn -0.000000 0.000000 -0.100000
vn -0.000000 0.000000 -0.100000
vn -0.000000 0.000000 -0.100000
vn -0.000000 0.000000 -0.100000
vn -0.000000 0.000000 -0.100000
vn -0.000000 0.000000 -0.100000
vn -0.000000 0.000000 -0.100000
vn -0.000000 0.000000 -0.100000
vn -0.000000 0.000000 -0.100000
vn -0.000000 0.000000 -0.100000
vn -0.000000 0.000000 -0.100000
vn -0.000000 0.000000 -0.100000
vn -0.000000 0.000000 -0.100000
vn -0.000000 0.000000 -0.100000
vn -0.000000 0.000000 -0.100000
vn -0.000000 0.000000 -0.100000
vn -0.000000 0.000000 -0.100000
vn -0.000000 0.000000 -0.100000
usemtl Steel_-_Satin
f 1/1/1 2/2/2 4/3/3
f 4/3/3 2/2/2 3/4/4
f 5/5/5 1/6/6 6/7/7
f 6/7/7 1/6/6 4/8/8
f 7/9/9 5/10/10 8/11/11
f 8/11/11 5/10/10 6/12/12
f 9/13/13 7/14/14 10/15/15
f 10/15/15 7/14/14 8/16/16
f 11/17/17 9/18/18 12/19/19
f 12/19/19 9/18/18 10/20/20
f 13/21/21 14/22/22 18/23/23
f 18/23/23 14/22/22 17/24/24
f 17/24/24 14/22/22 15/25/25
f 17/24/24 15/25/25 16/26/26
f 16/26/26 15/25/25 11/27/27
f 16/26/26 11/27/27 12/28/28
f 24/29/29 19/30/30 23/31/31
f 23/31/31 19/30/30 20/32/32
f 23/31/31 20/32/32 22/33/33
f 22/33/33 20/32/32 21/34/34
f 22/33/33 21/34/34 18/35/35
f 18/35/35 21/34/34 13/36/36
f 25/37/37 26/38/38 32/39/39
f 32/39/39 26/38/38 31/40/40
f 31/40/40 26/38/38 27/41/41
f 31/40/40 27/41/41 30/42/42
f 30/42/42 27/41/41 28/43/43
f 30/42/42 28/43/43 29/44/44
f 29/44/44 28/43/43 19/45/45
f 29/44/44 19/45/45 24/46/46
f 33/47/47 25/48/48 34/49/49
f 34/49/49 25/48/48 32/50/50
f 35/51/51 33/52/52 36/53/53
f 36/53/53 33/52/52 34/54/54
f 37/55/55 35/56/56 38/57/57
f 38/57/57 35/56/56 36/58/58
f 39/59/59 40/60/60 46/61/61
f 46/61/61 40/60/60 45/62/62
f 45/62/62 40/60/60 41/63/63
f 45/62/62 41/63/63 44/64/64
f 44/64/64 41/63/63 42/65/65
f 44/64/64 42/65/65 43/66/66
f 43/66/66 42/65/65 37/67/67
f 43/66/66 37/67/67 38/68/68
f 47/69/69 48/70/70 54/71/71
f 54/71/71 48/70/70 53/72/72
f 53/72/72 48/70/70 49/73/73
f 53/72/72 49/73/73 52/74/74
f 52/74/74 49/73/73 50/75/75
f 52/74/74 50/75/75 51/76/76
f 51/76/76 50/75/75 39/77/77
f 51/76/76 39/77/77 46/78/78
f 55/79/79 47/80/80 56/81/81
f 56/81/81 47/80/80 54/82/82
f 57/83/83 55/84/84 58/85/85
f 58/85/85 55/84/84 56/86/86
f 59/87/87 57/88/88 60/89/89
f 60/89/89 57/88/88 58/90/90
f 61/91/91 59/92/92 62/93/93
f 62/93/93 59/92/92 60/94/94
f 63/95/95 61/96/96 64/97/97
f 64/97/97 61/96/96 62/98/98
f 70/99/99 65/100/100 69/101/101
f 69/101/101 65/100/100 66/102/102
f 69/101/101 66/102/102 68/103/103
f 68/103/103 66/102/102 67/104/104
f 68/103/103 67/104/104 64/105/105
f 64/105/105 67/104/104 63/106/106
f 71/107/107 72/108/108 78/109/109
f 78/109/109 72/108/108 77/110/110
f 77/110/110 72/108/108 73/111/111
f 77/110/110 73/111/111 76/112/112
f 76/112/112 73/111/111 74/113/113
f 76/112/112 74/113/113 75/114/114
f 75/114/114 74/113/113 65/115/115
f 75/114/114 65/115/115 70/116/116
f 84/117/117 79/118/118 83/119/119
f 83/119/119 79/118/118 80/120/120
f 83/119/119 80/120/120 82/121/121
f 82/121/121 80/120/120 81/122/122
f 82/121/121 81/122/122 78/123/123
f 78/123/123 81/122/122 71/124/124
f 2/125/125 85/126/126 3/127/127
f 3/127/127 85/126/126 86/128/128
f 86/128/128 85/126/126 79/129/129
f 86/128/128 79/129/129 84/130/130
f 86/131/131 34/132/132 3/133/133
f 3/133/133 34/132/132 32/134/134
f 3/133/133 32/134/134 4/135/135
f 4/135/135 32/134/134 31/136/136
f 4/135/135 31/136/136 30/137/137
f 86/131/131 84/138/138 34/132/132
f 34/132/132 84/138/138 83/139/139
f 34/132/132 83/139/139 82/140/140
f 82/140/140 78/141/141 34/132/132
f 34/132/132 78/141/141 36/142/142
f 36/142/142 78/141/141 77/143/143
f 36/142/142 77/143/143 76/144/144
f 76/144/144 75/145/145 36/142/142
f 36/142/142 75/145/145 70/146/146
f 36/142/142 70/146/146 69/147/147
f 69/147/147 68/148/148 36/142/142
f 36/142/142 68/148/148 64/149/149
f 36/142/142 64/149/149 38/150/150
f 38/150/150 64/149/149 62/151/151
f 38/150/150 62/151/151 43/152/152
f 43/152/152 62/151/151 44/153/153
f 44/153/153 62/151/151 45/154/154
f 45/154/154 62/151/151 46/155/155
f 46/155/155 62/151/151 60/156/156
f 46/155/155 60/156/156 51/157/157
f 51/157/157 60/156/156 52/158/158
f 52/158/158 60/156/156 53/159/159
f 53/159/159 60/156/156 54/160/160
f 54/160/160 60/156/156 58/161/161
f 54/160/160 58/161/161 56/162/162
f 30/137/137 29/163/163 4/135/135
f 4/135/135 29/163/163 18/164/164
f 4/135/135 18/164/164 6/165/165
f 6/165/165 18/164/164 17/166/166
f 6/165/165 17/166/166 16/167/167
f 29/163/163 24/168/168 18/164/164
f 18/164/164 24/168/168 22/169/169
f 22/169/169 24/168/168 23/170/170
f 16/167/167 12/171/171 6/165/165
f 6/165/165 12/171/171 8/172/172
f 8/172/172 12/171/171 10/173/173
f 80/174/174 79/175/175 33/176/176
f 33/176/176 79/175/175 85/177/177
f 33/176/176 85/177/177 2/178/178
f 33/176/176 2/178/178 25/179/179
f 25/179/179 2/178/178 1/180/180
f 25/179/179 1/180/180 26/181/181
f 26/181/181 1/180/180 27/182/182
f 27/182/182 1/180/180 28/183/183
f 28/183/183 1/180/180 13/184/184
f 28/183/183 13/184/184 19/185/185
f 19/185/185 13/184/184 21/186/186
f 19/185/185 21/186/186 20/187/187
f 1/180/180 5/188/188 13/184/184
f 13/184/184 5/188/188 14/189/189
f 14/189/189 5/188/188 15/190/190
f 15/190/190 5/188/188 11/191/191
f 11/191/191 5/188/188 7/192/192
f 11/191/191 7/192/192 9/193/193
f 35/194/194 71/195/195 33/176/176
f 33/176/176 71/195/195 81/196/196
f 33/176/176 81/196/196 80/174/174
f 37/197/197 63/198/198 35/194/194
f 35/194/194 63/198/198 67/199/199
f 35/194/194 67/199/199 66/200/200
f 63/198/198 37/197/197 61/201/201
f 61/201/201 37/197/197 42/202/202
f 61/201/201 42/202/202 41/203/203
f 41/203/203 40/204/204 61/201/201
f 61/201/201 40/204/204 39/205/205
f 61/201/201 39/205/205 59/206/206
f 59/206/206 39/205/205 50/207/207
f 59/206/206 50/207/207 49/208/208
f 49/208/208 48/209/209 59/206/206
f 59/206/206 48/209/209 47/210/210
f 59/206/206 47/210/210 57/211/211
f 57/211/211 47/210/210 55/212/212
f 66/200/200 65/213/213 35/194/194
f 35/194/194 65/213/213 74/214/214
f 35/194/194 74/214/214 73/215/215
f 73/215/215 72/216/216 35/194/194
f 35/194/194 72/216/216 71/195/195

# 86 vertices
# 216 texture params
# 216 normals
# 168 facets

# 1 groups
