# WaveFront *.obj file (generated by Autodesk ATF)

mtllib 3ed3cd2e-7936-48a2-9493-b2db0136f37f.mtl

g Body1

v 13.573125 -18.520833 0.000000
v 8.016875 -8.810625 0.000000
v 8.016875 -8.810625 5.000000
v 13.573125 -18.520833 5.000000
v 10.980208 -18.520833 0.000000
v 10.980208 -18.520833 5.000000
v 6.720417 -11.033125 0.000000
v 6.720417 -11.033125 5.000000
v 2.566458 -18.520833 0.000000
v 2.566458 -18.520833 5.000000
v 0.000000 -18.520833 0.000000
v 0.000000 -18.520833 5.000000
v 5.503333 -8.942916 0.000000
v 5.503333 -8.942916 5.000000
v 0.396875 0.000000 0.000000
v 0.396875 0.000000 5.000000
v 2.989792 0.000000 0.000000
v 2.989792 0.000000 5.000000
v 6.799792 -6.693958 0.000000
v 6.799792 -6.693958 5.000000
v 10.556875 0.000000 0.000000
v 10.556875 0.000000 5.000000
v 13.096875 0.000000 0.000000
v 13.096875 0.000000 5.000000
vt 0.000000 0.000000 0.000000
vt 1.118750 0.000000 0.000000
vt 0.000000 0.500000 0.000000
vt 1.118750 0.500000 0.000000
vt 0.000000 0.000000 0.000000
vt 0.259292 0.000000 0.000000
vt 0.000000 0.500000 0.000000
vt 0.259292 0.500000 0.000000
vt 0.000000 0.000000 0.000000
vt 0.861462 0.000000 0.000000
vt 0.000000 0.500000 0.000000
vt 0.861462 0.500000 0.000000
vt 0.000000 0.000000 0.000000
vt 0.856278 0.000000 0.000000
vt -0.000000 0.500000 0.000000
vt 0.856278 0.500000 0.000000
vt 0.000000 0.000000 0.000000
vt 0.256646 0.000000 0.000000
vt 0.000000 0.500000 0.000000
vt 0.256646 0.500000 0.000000
vt -0.000000 0.000000 0.000000
vt 1.104641 0.000000 0.000000
vt -0.000000 0.500000 0.000000
vt 1.104641 0.500000 0.000000
vt -0.000000 0.000000 0.000000
vt 1.029814 0.000000 0.000000
vt -0.000000 0.500000 0.000000
vt 1.029814 0.500000 0.000000
vt -0.000000 0.000000 0.000000
vt 0.259292 0.000000 0.000000
vt -0.000000 0.500000 0.000000
vt 0.259292 0.500000 0.000000
vt 0.000000 0.000000 0.000000
vt 0.770228 0.000000 0.000000
vt 0.000000 0.500000 0.000000
vt 0.770228 0.500000 0.000000
vt -0.000000 0.000000 0.000000
vt 0.767625 0.000000 0.000000
vt -0.000000 0.500000 0.000000
vt 0.767625 0.500000 0.000000
vt -0.000000 0.000000 0.000000
vt 0.254000 0.000000 0.000000
vt -0.000000 0.500000 0.000000
vt 0.254000 0.500000 0.000000
vt 0.000000 0.000000 0.000000
vt 1.017023 0.000000 0.000000
vt 0.000000 0.500000 0.000000
vt 1.017023 0.500000 0.000000
vt 0.631031 0.926042 0.000000
vt 0.377031 0.926042 0.000000
vt 0.123031 0.044979 0.000000
vt 0.001323 0.256646 0.000000
vt -0.128323 0.031750 0.000000
vt -0.379677 0.926042 0.000000
vt -0.638969 0.926042 0.000000
vt -0.678656 -0.926042 0.000000
vt -0.422010 -0.926042 0.000000
vt -0.006615 -0.177271 0.000000
vt 0.419365 -0.926042 0.000000
vt 0.678656 -0.926042 0.000000
vt -0.631031 0.926042 0.000000
vt -0.123031 0.044979 0.000000
vt -0.377031 0.926042 0.000000
vt -0.001323 0.256646 0.000000
vt 0.128323 0.031750 0.000000
vt 0.379677 0.926042 0.000000
vt 0.638969 0.926042 0.000000
vt -0.678656 -0.926042 0.000000
vt -0.419365 -0.926042 0.000000
vt 0.006615 -0.177271 0.000000
vt 0.422010 -0.926042 0.000000
vt 0.678656 -0.926042 0.000000
vn 0.086795 0.049665 0.000000
vn 0.086795 0.049665 0.000000
vn 0.086795 0.049665 0.000000
vn 0.086795 0.049665 0.000000
vn 0.000000 -0.100000 0.000000
vn 0.000000 -0.100000 0.000000
vn 0.000000 -0.100000 0.000000
vn 0.000000 -0.100000 0.000000
vn -0.086919 -0.049448 0.000000
vn -0.086919 -0.049448 0.000000
vn -0.086919 -0.049448 0.000000
vn -0.086919 -0.049448 0.000000
vn 0.087445 -0.048512 0.000000
vn 0.087445 -0.048512 0.000000
vn 0.087445 -0.048512 0.000000
vn 0.087445 -0.048512 0.000000
vn 0.000000 -0.100000 0.000000
vn 0.000000 -0.100000 0.000000
vn 0.000000 -0.100000 0.000000
vn 0.000000 -0.100000 0.000000
vn -0.086706 0.049820 0.000000
vn -0.086706 0.049820 0.000000
vn -0.086706 0.049820 0.000000
vn -0.086706 0.049820 0.000000
vn -0.086840 -0.049586 0.000000
vn -0.086840 -0.049586 0.000000
vn -0.086840 -0.049586 0.000000
vn -0.086840 -0.049586 0.000000
vn 0.000000 0.100000 0.000000
vn 0.000000 0.100000 0.000000
vn 0.000000 0.100000 0.000000
vn 0.000000 0.100000 0.000000
vn 0.086909 0.049466 0.000000
vn 0.086909 0.049466 0.000000
vn 0.086909 0.049466 0.000000
vn 0.086909 0.049466 0.000000
vn -0.087204 0.048944 0.000000
vn -0.087204 0.048944 0.000000
vn -0.087204 0.048944 0.000000
vn -0.087204 0.048944 0.000000
vn 0.000000 0.100000 0.000000
vn 0.000000 0.100000 0.000000
vn 0.000000 0.100000 0.000000
vn 0.000000 0.100000 0.000000
vn 0.086632 -0.049950 0.000000
vn 0.086632 -0.049950 0.000000
vn 0.086632 -0.049950 0.000000
vn 0.086632 -0.049950 0.000000
vn 0.000000 0.000000 0.100000
vn 0.000000 0.000000 0.100000
vn 0.000000 0.000000 0.100000
vn 0.000000 0.000000 0.100000
vn 0.000000 0.000000 0.100000
vn 0.000000 0.000000 0.100000
vn 0.000000 0.000000 0.100000
vn 0.000000 0.000000 0.100000
vn 0.000000 0.000000 0.100000
vn 0.000000 0.000000 0.100000
vn 0.000000 0.000000 0.100000
vn 0.000000 0.000000 0.100000
vn -0.000000 0.000000 -0.100000
vn -0.000000 0.000000 -0.100000
vn -0.000000 0.000000 -0.100000
vn -0.000000 0.000000 -0.100000
vn -0.000000 0.000000 -0.100000
vn -0.000000 0.000000 -0.100000
vn -0.000000 0.000000 -0.100000
vn -0.000000 0.000000 -0.100000
vn -0.000000 0.000000 -0.100000
vn -0.000000 0.000000 -0.100000
vn -0.000000 0.000000 -0.100000
vn -0.000000 0.000000 -0.100000
usemtl Steel_-_Satin
f 1/1/1 2/2/2 4/3/3
f 4/3/3 2/2/2 3/4/4
f 5/5/5 1/6/6 6/7/7
f 6/7/7 1/6/6 4/8/8
f 7/9/9 5/10/10 8/11/11
f 8/11/11 5/10/10 6/12/12
f 9/13/13 7/14/14 10/15/15
f 10/15/15 7/14/14 8/16/16
f 11/17/17 9/18/18 12/19/19
f 12/19/19 9/18/18 10/20/20
f 13/21/21 11/22/22 14/23/23
f 14/23/23 11/22/22 12/24/24
f 15/25/25 13/26/26 16/27/27
f 16/27/27 13/26/26 14/28/28
f 17/29/29 15/30/30 18/31/31
f 18/31/31 15/30/30 16/32/32
f 19/33/33 17/34/34 20/35/35
f 20/35/35 17/34/34 18/36/36
f 21/37/37 19/38/38 22/39/39
f 22/39/39 19/38/38 20/40/40
f 23/41/41 21/42/42 24/43/43
f 24/43/43 21/42/42 22/44/44
f 2/45/45 23/46/46 3/47/47
f 3/47/47 23/46/46 24/48/48
f 24/49/49 22/50/50 3/51/51
f 3/51/51 22/50/50 20/52/52
f 3/51/51 20/52/52 14/53/53
f 14/53/53 20/52/52 18/54/54
f 14/53/53 18/54/54 16/55/55
f 12/56/56 10/57/57 14/53/53
f 14/53/53 10/57/57 8/58/58
f 14/53/53 8/58/58 3/51/51
f 3/51/51 8/58/58 6/59/59
f 3/51/51 6/59/59 4/60/60
f 23/61/61 2/62/62 21/63/63
f 21/63/63 2/62/62 19/64/64
f 19/64/64 2/62/62 13/65/65
f 19/64/64 13/65/65 17/66/66
f 17/66/66 13/65/65 15/67/67
f 1/68/68 5/69/69 2/62/62
f 2/62/62 5/69/69 7/70/70
f 2/62/62 7/70/70 13/65/65
f 13/65/65 7/70/70 9/71/71
f 13/65/65 9/71/71 11/72/72

# 24 vertices
# 72 texture params
# 72 normals
# 44 facets

# 1 groups
