# WaveFront *.obj file (generated by Autodesk ATF)

mtllib 471f2d22-834a-448e-8d9c-9ef55804f007.mtl

g Body1

v 8.598958 -18.520833 0.000000
v 8.598958 -11.191875 0.000000
v 8.598958 -11.191875 5.000000
v 8.598958 -18.520833 5.000000
v 6.297083 -18.520833 0.000000
v 6.297083 -18.520833 5.000000
v 6.297083 -11.244792 0.000000
v 6.297083 -11.244792 5.000000
v 0.000000 0.000000 0.000000
v 0.000000 0.000000 5.000000
v 2.592917 0.000000 0.000000
v 2.592917 0.000000 5.000000
v 7.434792 -8.995833 0.000000
v 7.434792 -8.995833 5.000000
v 12.329583 0.000000 0.000000
v 12.329583 0.000000 5.000000
v 14.843125 0.000000 0.000000
v 14.843125 0.000000 5.000000
vt 0.000000 0.000000 0.000000
vt 0.732896 0.000000 0.000000
vt 0.000000 0.500000 0.000000
vt 0.732896 0.500000 0.000000
vt 0.000000 0.000000 0.000000
vt 0.230188 0.000000 0.000000
vt 0.000000 0.500000 0.000000
vt 0.230188 0.500000 0.000000
vt -0.000000 0.000000 0.000000
vt 0.727604 0.000000 0.000000
vt -0.000000 0.500000 0.000000
vt 0.727604 0.500000 0.000000
vt 0.000000 0.000000 0.000000
vt 1.288792 0.000000 0.000000
vt 0.000000 0.500000 0.000000
vt 1.288792 0.500000 0.000000
vt -0.000000 0.000000 0.000000
vt 0.259292 0.000000 0.000000
vt 0.000000 0.500000 0.000000
vt 0.259292 0.500000 0.000000
vt 0.000000 0.000000 0.000000
vt 1.021610 0.000000 0.000000
vt 0.000000 0.500000 0.000000
vt 1.021610 0.500000 0.000000
vt -0.000000 0.000000 0.000000
vt 1.024129 0.000000 0.000000
vt -0.000000 0.500000 0.000000
vt 1.024129 0.500000 0.000000
vt -0.000000 0.000000 0.000000
vt 0.251354 0.000000 0.000000
vt -0.000000 0.500000 0.000000
vt 0.251354 0.500000 0.000000
vt 0.000000 0.000000 0.000000
vt 1.281591 0.000000 0.000000
vt 0.000000 0.500000 0.000000
vt 1.281591 0.500000 0.000000
vt 0.742156 0.926042 0.000000
vt 0.490802 0.926042 0.000000
vt 0.117740 -0.193146 0.000000
vt 0.001323 0.026458 0.000000
vt -0.112448 -0.198437 0.000000
vt -0.742156 0.926042 0.000000
vt -0.482865 0.926042 0.000000
vt -0.112448 -0.926042 0.000000
vt 0.117740 -0.926042 0.000000
vt -0.742156 0.926042 0.000000
vt -0.117740 -0.193146 0.000000
vt -0.490802 0.926042 0.000000
vt -0.001323 0.026458 0.000000
vt 0.112448 -0.198437 0.000000
vt 0.742156 0.926042 0.000000
vt -0.117740 -0.926042 0.000000
vt 0.112448 -0.926042 0.000000
vt 0.482865 0.926042 0.000000
vn 0.100000 0.000000 0.000000
vn 0.100000 0.000000 0.000000
vn 0.100000 0.000000 0.000000
vn 0.100000 0.000000 0.000000
vn 0.000000 -0.100000 0.000000
vn 0.000000 -0.100000 0.000000
vn 0.000000 -0.100000 0.000000
vn 0.000000 -0.100000 0.000000
vn -0.100000 0.000000 0.000000
vn -0.100000 0.000000 0.000000
vn -0.100000 0.000000 0.000000
vn -0.100000 0.000000 0.000000
vn -0.087251 -0.048860 0.000000
vn -0.087251 -0.048860 0.000000
vn -0.087251 -0.048860 0.000000
vn -0.087251 -0.048860 0.000000
vn 0.000000 0.100000 0.000000
vn 0.000000 0.100000 0.000000
vn 0.000000 0.100000 0.000000
vn 0.000000 0.100000 0.000000
vn 0.088055 0.047395 0.000000
vn 0.088055 0.047395 0.000000
vn 0.088055 0.047395 0.000000
vn 0.088055 0.047395 0.000000
vn -0.087839 0.047795 0.000000
vn -0.087839 0.047795 0.000000
vn -0.087839 0.047795 0.000000
vn -0.087839 0.047795 0.000000
vn 0.000000 0.100000 0.000000
vn 0.000000 0.100000 0.000000
vn 0.000000 0.100000 0.000000
vn 0.000000 0.100000 0.000000
vn 0.087328 -0.048722 0.000000
vn 0.087328 -0.048722 0.000000
vn 0.087328 -0.048722 0.000000
vn 0.087328 -0.048722 0.000000
vn 0.000000 0.000000 0.100000
vn 0.000000 0.000000 0.100000
vn 0.000000 0.000000 0.100000
vn 0.000000 0.000000 0.100000
vn 0.000000 0.000000 0.100000
vn 0.000000 0.000000 0.100000
vn 0.000000 0.000000 0.100000
vn 0.000000 0.000000 0.100000
vn 0.000000 0.000000 0.100000
vn -0.000000 0.000000 -0.100000
vn -0.000000 0.000000 -0.100000
vn -0.000000 0.000000 -0.100000
vn -0.000000 0.000000 -0.100000
vn -0.000000 0.000000 -0.100000
vn -0.000000 0.000000 -0.100000
vn -0.000000 0.000000 -0.100000
vn -0.000000 0.000000 -0.100000
vn -0.000000 0.000000 -0.100000
usemtl Steel_-_Satin
f 1/1/1 2/2/2 4/3/3
f 4/3/3 2/2/2 3/4/4
f 5/5/5 1/6/6 6/7/7
f 6/7/7 1/6/6 4/8/8
f 7/9/9 5/10/10 8/11/11
f 8/11/11 5/10/10 6/12/12
f 9/13/13 7/14/14 10/15/15
f 10/15/15 7/14/14 8/16/16
f 11/17/17 9/18/18 12/19/19
f 12/19/19 9/18/18 10/20/20
f 13/21/21 11/22/22 14/23/23
f 14/23/23 11/22/22 12/24/24
f 15/25/25 13/26/26 16/27/27
f 16/27/27 13/26/26 14/28/28
f 17/29/29 15/30/30 18/31/31
f 18/31/31 15/30/30 16/32/32
f 2/33/33 17/34/34 3/35/35
f 3/35/35 17/34/34 18/36/36
f 18/37/37 16/38/38 3/39/39
f 3/39/39 16/38/38 14/40/40
f 3/39/39 14/40/40 8/41/41
f 8/41/41 14/40/40 10/42/42
f 10/42/42 14/40/40 12/43/43
f 6/44/44 4/45/45 8/41/41
f 8/41/41 4/45/45 3/39/39
f 17/46/46 2/47/47 15/48/48
f 15/48/48 2/47/47 13/49/49
f 13/49/49 2/47/47 7/50/50
f 13/49/49 7/50/50 9/51/51
f 2/47/47 1/52/52 7/50/50
f 7/50/50 1/52/52 5/53/53
f 9/51/51 11/54/54 13/49/49

# 18 vertices
# 54 texture params
# 54 normals
# 32 facets

# 1 groups
