# WaveFront *.obj file (generated by Autodesk ATF)

mtllib 5b4d6d6d-8054-47d3-8e9f-7e5f98d6017a.mtl

g Body1

v 13.731875 -18.520833 0.000000
v 13.731875 -16.324792 0.000000
v 13.731875 -16.324792 5.000000
v 13.731875 -18.520833 5.000000
v 0.000000 -18.520833 0.000000
v 0.000000 -18.520833 5.000000
v 0.000000 -16.748125 0.000000
v 0.000000 -16.748125 5.000000
v 10.742083 -2.196042 0.000000
v 10.742083 -2.196042 5.000000
v 0.608542 -2.196042 0.000000
v 0.608542 -2.196042 5.000000
v 0.608542 0.000000 0.000000
v 0.608542 0.000000 5.000000
v 13.731875 0.000000 0.000000
v 13.731875 0.000000 5.000000
v 13.731875 -1.772708 0.000000
v 13.731875 -1.772708 5.000000
v 3.042708 -16.324792 0.000000
v 3.042708 -16.324792 5.000000
vt 0.000000 0.000000 0.000000
vt 0.219604 0.000000 0.000000
vt 0.000000 0.500000 0.000000
vt 0.219604 0.500000 0.000000
vt 0.000000 0.000000 0.000000
vt 1.373188 0.000000 0.000000
vt 0.000000 0.500000 0.000000
vt 1.373188 0.500000 0.000000
vt -0.000000 0.000000 0.000000
vt 0.177271 0.000000 0.000000
vt -0.000000 0.500000 0.000000
vt 0.177271 0.500000 0.000000
vt -0.000000 0.000000 0.000000
vt 1.808744 0.000000 0.000000
vt -0.000000 0.500000 0.000000
vt 1.808744 0.500000 0.000000
vt 0.000000 0.000000 0.000000
vt 1.013354 0.000000 0.000000
vt 0.000000 0.500000 0.000000
vt 1.013354 0.500000 0.000000
vt -0.000000 0.000000 0.000000
vt 0.219604 0.000000 0.000000
vt 0.000000 0.500000 0.000000
vt 0.219604 0.500000 0.000000
vt -0.000000 0.000000 0.000000
vt 1.312333 0.000000 0.000000
vt -0.000000 0.500000 0.000000
vt 1.312333 0.500000 0.000000
vt 0.000000 0.000000 0.000000
vt 0.177271 0.000000 0.000000
vt 0.000000 0.500000 0.000000
vt 0.177271 0.500000 0.000000
vt 0.000000 0.000000 0.000000
vt 1.805606 0.000000 0.000000
vt 0.000000 0.500000 0.000000
vt 1.805606 0.500000 0.000000
vt -0.000000 0.000000 0.000000
vt 1.068917 0.000000 0.000000
vt -0.000000 0.500000 0.000000
vt 1.068917 0.500000 0.000000
vt 0.686594 -0.706438 0.000000
vt -0.382323 -0.706438 0.000000
vt 0.686594 -0.926042 0.000000
vt -0.686594 -0.926042 0.000000
vt -0.686594 -0.748771 0.000000
vt 0.387615 0.706437 0.000000
vt 0.686594 0.748771 0.000000
vt 0.686594 0.926042 0.000000
vt -0.625740 0.926042 0.000000
vt -0.625740 0.706437 0.000000
vt -0.686594 -0.706438 0.000000
vt -0.686594 -0.926042 0.000000
vt 0.382323 -0.706438 0.000000
vt 0.686594 -0.926042 0.000000
vt 0.686594 -0.748771 0.000000
vt -0.387615 0.706437 0.000000
vt -0.686594 0.748771 0.000000
vt -0.686594 0.926042 0.000000
vt 0.625740 0.926042 0.000000
vt 0.625740 0.706437 0.000000
vn 0.100000 0.000000 0.000000
vn 0.100000 0.000000 0.000000
vn 0.100000 0.000000 0.000000
vn 0.100000 0.000000 0.000000
vn 0.000000 -0.100000 0.000000
vn 0.000000 -0.100000 0.000000
vn 0.000000 -0.100000 0.000000
vn 0.000000 -0.100000 0.000000
vn -0.100000 0.000000 0.000000
vn -0.100000 0.000000 0.000000
vn -0.100000 0.000000 0.000000
vn -0.100000 0.000000 0.000000
vn -0.080454 0.059390 0.000000
vn -0.080454 0.059390 0.000000
vn -0.080454 0.059390 0.000000
vn -0.080454 0.059390 0.000000
vn -0.000000 -0.100000 0.000000
vn -0.000000 -0.100000 0.000000
vn -0.000000 -0.100000 0.000000
vn -0.000000 -0.100000 0.000000
vn -0.100000 0.000000 0.000000
vn -0.100000 0.000000 0.000000
vn -0.100000 0.000000 0.000000
vn -0.100000 0.000000 0.000000
vn 0.000000 0.100000 0.000000
vn 0.000000 0.100000 0.000000
vn 0.000000 0.100000 0.000000
vn 0.000000 0.100000 0.000000
vn 0.100000 0.000000 0.000000
vn 0.100000 0.000000 0.000000
vn 0.100000 0.000000 0.000000
vn 0.100000 0.000000 0.000000
vn 0.080594 -0.059200 0.000000
vn 0.080594 -0.059200 0.000000
vn 0.080594 -0.059200 0.000000
vn 0.080594 -0.059200 0.000000
vn 0.000000 0.100000 0.000000
vn 0.000000 0.100000 0.000000
vn 0.000000 0.100000 0.000000
vn 0.000000 0.100000 0.000000
vn 0.000000 0.000000 0.100000
vn 0.000000 0.000000 0.100000
vn 0.000000 0.000000 0.100000
vn 0.000000 0.000000 0.100000
vn 0.000000 0.000000 0.100000
vn 0.000000 0.000000 0.100000
vn 0.000000 0.000000 0.100000
vn 0.000000 0.000000 0.100000
vn 0.000000 0.000000 0.100000
vn 0.000000 0.000000 0.100000
vn -0.000000 0.000000 -0.100000
vn -0.000000 0.000000 -0.100000
vn -0.000000 0.000000 -0.100000
vn -0.000000 0.000000 -0.100000
vn -0.000000 0.000000 -0.100000
vn -0.000000 0.000000 -0.100000
vn -0.000000 0.000000 -0.100000
vn -0.000000 0.000000 -0.100000
vn -0.000000 0.000000 -0.100000
vn -0.000000 0.000000 -0.100000
usemtl Steel_-_Satin
f 1/1/1 2/2/2 4/3/3
f 4/3/3 2/2/2 3/4/4
f 5/5/5 1/6/6 6/7/7
f 6/7/7 1/6/6 4/8/8
f 7/9/9 5/10/10 8/11/11
f 8/11/11 5/10/10 6/12/12
f 9/13/13 7/14/14 10/15/15
f 10/15/15 7/14/14 8/16/16
f 11/17/17 9/18/18 12/19/19
f 12/19/19 9/18/18 10/20/20
f 13/21/21 11/22/22 14/23/23
f 14/23/23 11/22/22 12/24/24
f 15/25/25 13/26/26 16/27/27
f 16/27/27 13/26/26 14/28/28
f 17/29/29 15/30/30 18/31/31
f 18/31/31 15/30/30 16/32/32
f 19/33/33 17/34/34 20/35/35
f 20/35/35 17/34/34 18/36/36
f 2/37/37 19/38/38 3/39/39
f 3/39/39 19/38/38 20/40/40
f 3/41/41 20/42/42 4/43/43
f 4/43/43 20/42/42 6/44/44
f 6/44/44 20/42/42 8/45/45
f 8/45/45 20/42/42 10/46/46
f 10/46/46 20/42/42 18/47/47
f 10/46/46 18/47/47 16/48/48
f 16/48/48 14/49/49 10/46/46
f 10/46/46 14/49/49 12/50/50
f 2/51/51 1/52/52 19/53/53
f 19/53/53 1/52/52 5/54/54
f 19/53/53 5/54/54 7/55/55
f 7/55/55 9/56/56 19/53/53
f 19/53/53 9/56/56 17/57/57
f 17/57/57 9/56/56 15/58/58
f 15/58/58 9/56/56 13/59/59
f 13/59/59 9/56/56 11/60/60

# 20 vertices
# 60 texture params
# 60 normals
# 36 facets

# 1 groups
